<?xml version="1.0" encoding="UTF-8" standalone="no"?>
<!-- Created with Inkscape (http://www.inkscape.org/) -->

<svg
   width="25.734316mm"
   height="31.470921mm"
   viewBox="0 0 25.734316 31.470921"
   version="1.1"
   id="svg1"
   sodipodi:docname="netplace_WIP.svg"
   inkscape:version="1.3 (0e150ed, 2023-07-21)"
   inkscape:export-filename="netplace_small.jpg"
   inkscape:export-xdpi="201.77357"
   inkscape:export-ydpi="201.77357"
   xmlns:inkscape="http://www.inkscape.org/namespaces/inkscape"
   xmlns:sodipodi="http://sodipodi.sourceforge.net/DTD/sodipodi-0.dtd"
   xmlns="http://www.w3.org/2000/svg"
   xmlns:svg="http://www.w3.org/2000/svg">
  <sodipodi:namedview
     id="namedview1"
     pagecolor="#ffffff"
     bordercolor="#000000"
     borderopacity="0.25"
     inkscape:showpageshadow="2"
     inkscape:pageopacity="0.0"
     inkscape:pagecheckerboard="true"
     inkscape:deskcolor="#d1d1d1"
     inkscape:document-units="mm"
     inkscape:zoom="7.6310271"
     inkscape:cx="38.133792"
     inkscape:cy="52.417583"
     inkscape:window-width="2048"
     inkscape:window-height="1057"
     inkscape:window-x="0"
     inkscape:window-y="25"
     inkscape:window-maximized="1"
     inkscape:current-layer="layer5"
     showgrid="false" />
  <defs
     id="defs1">
    <inkscape:path-effect
       effect="fill_between_many"
       method="originald"
       linkedpaths="#path18684,0,1"
       id="path-effect2"
       is_visible="true"
       lpeversion="0"
       join="true"
       close="true"
       autoreverse="true" />
  </defs>
  <g
     id="layer2"
     inkscape:label="Layer 0"
     style="display:inline"
     transform="translate(-72.528365,-108.14078)">
    <path
       id="path46"
       style="display:inline;fill:#f1491d;fill-opacity:1"
       d="m 86.652721,108.37615 -0.216524,0.0543 -0.217041,0.0548 -0.140044,0.21394 -0.140559,0.21394 0.09973,0.33279 0.09974,0.33228 -0.555005,1.16169 -0.554488,1.1622 -0.244947,0.21601 -0.244946,0.21652 -0.03979,0.38086 -0.03979,0.38137 -1.258838,2.61793 -1.258837,2.61793 -0.105937,0.0351 -0.10542,0.0346 v -2.51922 -2.51923 l -0.140043,-0.15503 -0.14056,-0.15451 h -0.323495 -0.323494 l -0.127641,0.19482 -0.128157,0.19533 0.01033,0.37621 0.0098,0.37672 -1.949751,3.75688 c -0.536147,1.0332 -1.043051,1.99737 -1.42782,2.71869 -0.38477,0.72133 -0.647408,1.1998 -0.695048,1.26091 l -0.173116,0.22221 -0.0047,-0.53847 -0.0047,-0.53795 0.211357,-0.25167 0.211873,-0.25166 v -0.22841 -0.22893 l -0.131775,-0.1881 -0.131775,-0.1881 h -0.331762 -0.33228 l -0.118339,0.19068 c -0.03262,0.0524 -0.06802,0.12951 -0.09819,0.21136 -0.03016,0.0818 -0.05508,0.16844 -0.06821,0.2403 -0.01882,0.10297 -0.06681,0.27681 -0.136426,0.50281 -0.06961,0.22599 -0.160935,0.5039 -0.267167,0.81494 -0.212464,0.62205 -0.484169,1.37668 -0.758093,2.11098 -0.273925,0.73429 -0.550021,1.44845 -0.772046,1.99109 -0.111013,0.27132 -0.208472,0.49968 -0.285254,0.66611 -0.03839,0.0832 -0.07152,0.15115 -0.0987,0.20102 -0.02718,0.0499 -0.04834,0.0818 -0.06253,0.0935 l -0.132808,0.11007 v 0.24753 0.24753 l 0.195337,0.18655 c 0.107513,0.10266 0.256999,0.2247 0.332279,0.2713 l 0.136943,0.0847 1.488281,3.75274 1.487765,3.75326 -0.05219,0.32608 -0.05219,0.32608 0.217558,0.21755 0.218075,0.21756 h 0.168982 c 0.04653,0 0.110786,-0.01 0.176733,-0.0258 0.06595,-0.0158 0.133586,-0.0374 0.187069,-0.0615 l 0.194303,-0.0879 3.250448,1.18391 3.250964,1.18339 0.248047,0.30127 0.24753,0.30076 h 0.222725 0.223243 l 0.299723,-0.28216 0.30024,-0.28215 1.481563,-0.39636 c 0.814917,-0.21784 1.813763,-0.48772 2.219503,-0.59996 l 0.737423,-0.20412 0.207222,0.16278 0.206706,0.16278 h 0.261999 0.262 l 0.172082,-0.1726 0.1726,-0.1726 -0.02067,-0.35037 -0.02067,-0.35088 1.054716,-1.00356 c 0.580027,-0.55217 1.478036,-1.4031 1.995743,-1.89032 l 0.941545,-0.88573 h 0.211357 0.211356 l 0.233061,-0.18345 0.233061,-0.18294 -0.05116,-0.43822 -0.05168,-0.43821 0.554488,-1.47433 0.555005,-1.47381 0.185001,-0.14728 c 0.10196,-0.081 0.25233,-0.2114 0.33383,-0.2899 l 0.148311,-0.14263 v -0.19379 -0.1943 l -0.25063,-0.28474 -0.250114,-0.28525 -0.558623,-2.95641 -0.558622,-2.95641 0.0925,-0.31574 0.09198,-0.31626 -0.129191,-0.2496 -0.129191,-0.24908 -0.173116,-0.0553 -0.173116,-0.0548 -1.255738,-2.51251 -1.25522,-2.51199 0.06718,-0.1695 c 0.01845,-0.0465 0.03587,-0.10619 0.04909,-0.16433 0.01323,-0.0581 0.02227,-0.11478 0.02377,-0.15658 l 0.0062,-0.15245 -0.207739,-0.20773 -0.207739,-0.20774 H 92.915904 92.66424 l -0.1788,0.22686 -0.178284,0.22686 0.05323,0.35243 0.05271,0.35295 -0.312126,1.05006 c -0.08579,0.28884 -0.172358,0.5607 -0.242879,0.76585 -0.07052,0.20514 -0.124994,0.34357 -0.146244,0.36587 l -0.07752,0.0806 -0.115755,-0.12299 c -0.03189,-0.034 -0.304951,-0.49926 -0.719336,-1.22111 -0.414386,-0.72186 -0.970096,-1.70026 -1.56683,-2.76159 l -2.169893,-3.85971 0.09612,-0.2744 0.0956,-0.27492 -0.09405,-0.20619 -0.09405,-0.20619 -0.206705,-0.0946 z m -5.345927,5.93659 -0.176733,0.0269 -0.176734,0.0269 v -5.1e-4 l 0.176734,-0.0269 z m 0.484725,6.03115 c -0.03489,0.0431 -0.07196,0.0747 -0.115755,0.0982 0.0438,-0.0235 0.08087,-0.0551 0.115755,-0.0982 z m 13.447241,0.52142 c 0.01842,0.0607 0.05078,0.1268 0.09147,0.19172 0.04069,0.0649 0.08987,0.12881 0.141077,0.185 0.05121,0.0562 0.104553,0.10497 0.154513,0.13953 0.02498,0.0173 0.04885,0.0309 0.07131,0.0403 0.02246,0.009 0.04354,0.0145 0.06201,0.0145 -0.01848,0 -0.03955,-0.005 -0.06201,-0.0145 -0.02246,-0.009 -0.04633,-0.023 -0.07131,-0.0403 -0.04996,-0.0346 -0.103307,-0.0833 -0.154513,-0.13953 -0.05121,-0.0562 -0.100386,-0.12008 -0.141077,-0.185 -0.04069,-0.0649 -0.07305,-0.13098 -0.09147,-0.19172 z"
       inkscape:label="path46" />
  </g>
  <g
     inkscape:groupmode="layer"
     id="layer3"
     inkscape:label="Layer 1"
     style="display:inline"
     transform="translate(0.48125981,0.23537005)">
    <path
       id="path403"
       style="display:inline;fill:#fd9e32;stroke-width:1.7;paint-order:stroke fill markers"
       d="m 11.980147,8.1493734 c -0.0071,0.6891231 -1.25e-4,1.3796188 0.0026,2.0696406 0.0013,0.345013 0.0017,0.689966 -0.0015,1.034563 -0.0032,0.344593 -0.0098,0.688742 -0.02222,1.032495 -0.06017,0.322501 -0.121883,0.646139 -0.188102,0.968933 -0.06622,0.322794 -0.136846,0.644561 -0.214457,0.964799 -0.07761,0.320237 -0.162475,0.638595 -0.256832,0.95343 -0.04718,0.157418 -0.09698,0.314205 -0.149345,0.469739 -0.05237,0.155533 -0.107141,0.309727 -0.165365,0.463021 -0.08753,0.160562 -0.168734,0.325497 -0.24753,0.491959 -0.0788,0.166462 -0.155473,0.334688 -0.234094,0.501262 -0.07862,0.166574 -0.158969,0.331574 -0.24598,0.492476 -0.04351,0.08045 -0.0887,0.159763 -0.135909,0.237712 -0.04721,0.07795 -0.09633,0.15472 -0.1483113,0.229443 -0.093917,0.09798 -0.1829841,0.202723 -0.2723348,0.306958 -0.089351,0.104235 -0.1790355,0.207853 -0.2744019,0.303857 -0.047683,0.048 -0.09714,0.09423 -0.1483113,0.13746 -0.051171,0.04323 -0.1042152,0.08376 -0.160197,0.120406 -0.055982,0.03665 -0.1146183,0.06941 -0.1767334,0.09767 -0.062115,0.02826 -0.127833,0.0517 -0.197404,0.06976 -0.0426,0.01572 -0.084693,0.0269 -0.1260905,0.03411 -0.041397,0.0072 -0.08225,0.01084 -0.1224731,0.01033 -0.040223,-4.99e-4 -0.079778,-0.005 -0.1188558,-0.0124 -0.039078,-0.0074 -0.077276,-0.01797 -0.1152384,-0.03152 -0.037963,-0.01355 -0.075778,-0.03021 -0.1126547,-0.04909 -0.036876,-0.01888 -0.073218,-0.04013 -0.1090372,-0.06356 C 7.9675299,18.93595 7.8981155,18.880846 7.8305298,18.820557 7.7629441,18.760267 7.6974096,18.694675 7.6336426,18.627287 7.5698753,18.559899 7.5083066,18.490802 7.4481242,18.422648 7.3879415,18.354494 7.3292564,18.287314 7.2724243,18.224727 7.2155925,18.16214 7.1602581,18.103849 7.106543,18.053162 6.9470469,17.865869 6.794199,17.673877 6.646106,17.478003 6.4980127,17.282129 6.3550743,17.082669 6.2146077,16.88114 5.933675,16.478085 5.663967,16.066592 5.3908854,15.658476 c -0.061394,0.06157 -0.1146826,0.127234 -0.1617472,0.19637 -0.047065,0.06914 -0.08779,0.141931 -0.1235067,0.217041 -0.035716,0.07511 -0.066703,0.152536 -0.094051,0.232027 -0.027348,0.07949 -0.051422,0.161117 -0.07338,0.243396 -0.04392,0.164559 -0.079639,0.333042 -0.1198894,0.499195 -0.020125,0.08308 -0.041434,0.165411 -0.065112,0.246496 -0.023678,0.08109 -0.049888,0.160727 -0.080098,0.238229 -0.087879,0.35061 -0.1717973,0.703187 -0.2475301,1.057816 -0.037867,0.177316 -0.073572,0.355093 -0.1069703,0.533301 -0.033398,0.178208 -0.064526,0.356861 -0.092501,0.535885 -0.027975,0.17902 -0.052817,0.358704 -0.074414,0.538468 -0.021597,0.179764 -0.039479,0.359591 -0.053744,0.540019 -0.014264,0.180428 -0.025029,0.361585 -0.031006,0.542602 -0.00598,0.181017 -0.0074,0.362109 -0.00413,0.543636 0.00515,-0.0033 0.015216,0.0013 0.029456,0.01189 0.00229,0.0017 0.052249,-0.610133 0.00878,0.0078 -0.088479,-0.106964 0.051507,0.504457 0.072347,0.75706 0.019468,0.245919 0.036429,0.49245 0.054777,0.738456 0.018348,0.24601 0.038388,0.49159 0.063045,0.73639 0.024657,0.244796 0.054107,0.488932 0.092501,0.731221 0.036415,0.164072 0.074662,0.327108 0.1173055,0.488859 0.042643,0.161751 0.089976,0.32223 0.1431437,0.480074 0.053168,0.157844 0.1123609,0.313253 0.1803507,0.465605 0.033995,0.07618 0.070014,0.15132 0.1085205,0.225826 0.038506,0.07451 0.079435,0.148021 0.1229899,0.220658 l 0.24598,0.496558 0.201538,-0.482141 c -0.083632,0.155002 -0.1401928,0.366696 -0.1777671,0.513143 -0.00565,-10e-4 -0.014717,-0.0064 -0.01602,-0.0026 0.056287,0.248258 0.05949,0.526342 0.097668,0.782736 0.2100139,0.03674 0.4214903,-0.63355 0.633553,-0.60755 -0.1353605,-0.01283 -0.2704729,-0.02907 -0.4061767,-0.03876 -0.059929,-0.02252 -0.1008533,-0.03184 -0.1260905,-0.03101 -0.012619,4.17e-4 -0.021127,0.0036 -0.026355,0.0088 -0.00523,0.0052 -0.00699,0.01244 -0.00568,0.0217 0.00262,0.01854 0.01719,0.04435 0.040824,0.07493 0.023634,0.03058 0.056237,0.06587 0.094051,0.102836 0.075629,0.07393 0.099215,0.559512 0.1905402,0.625053 0.045662,0.03277 0.1541956,-0.177431 0.2027174,-0.320675 0.014488,-0.04277 0.074091,0.03746 0.1002523,0.04341 0.1404385,0.07165 0.2464514,0.123517 0.3358968,0.15968 0.044723,0.01808 0.085651,0.03235 0.1240235,0.04341 0.038372,0.01106 0.074301,0.0185 0.1105875,0.02377 0.045299,0.0066 0.09724,0.0039 0.1467611,0.0036 0.015325,-1.36e-4 0.030665,-3.84e-4 0.045992,-5.17e-4 -0.00202,3.58e-4 -0.00317,0.0012 -0.00517,0.0016 -0.014512,4.92e-4 -0.027049,-0.0011 -0.040824,-0.001 -0.057682,5.13e-4 -0.1154712,5.6e-4 -0.1731161,0.001 0.025386,0.01008 0.051082,0.01941 0.076481,0.02946 -0.00722,0.0016 -0.019124,0.0035 -0.021704,0.0047 -0.00523,0.0023 -5.611e-4,0.0034 0.01602,0.0031 0.64641,0.263683 1.294902,0.525586 1.9476847,0.776181 0.3263913,0.125294 0.6541554,0.248005 0.9828857,0.366385 0.3287307,0.118384 0.6585552,0.232539 0.9901202,0.341582 l -0.02532,-0.01499 c -0.04596,-0.02286 -0.09417,-0.04329 -0.141077,-0.06511 0.09573,0.04064 0.192825,0.07825 0.287838,0.120406 0.05027,0.0097 0.09255,0.01546 0.140043,0.02377 -0.0024,4.1e-5 -0.0097,-0.0011 -0.01189,-10e-4 -0.0178,8.4e-4 -0.02721,0.0038 -0.02635,0.0093 7.78e-4,0.0051 0.01272,0.01299 0.03204,0.02274 -0.02118,-0.0059 -0.06148,-0.01932 -0.06511,-0.0186 -0.0076,0.0015 0.02454,0.01695 0.101803,0.04547 0.07727,0.02853 0.199631,0.0702 0.373104,0.123507 0.01799,-0.01684 0.03112,-0.03485 0.03979,-0.05426 0.0087,-0.01941 0.01262,-0.04033 0.01292,-0.06201 4.3e-5,-0.0031 -0.0015,-0.0066 -0.0015,-0.0098 -7.1e-5,-0.0019 -9.76e-4,-0.0038 -10e-4,-0.0057 0.0013,0.0021 0.0029,0.0041 0.0041,0.0062 0.02271,0.03883 0.04757,0.07648 0.0677,0.116789 -0.02677,0.0062 -0.03807,0.01187 -0.03669,0.01757 0.0014,0.0057 0.01544,0.01123 0.03876,0.01654 0.04664,0.01061 0.13077,0.02078 0.227893,0.03049 0.09712,0.0097 0.20698,0.01926 0.304891,0.02894 0.09791,0.0097 0.184059,0.01946 0.233061,0.02997 0.311771,-0.05898 0.623978,-0.116604 0.93431,-0.181901 0.155166,-0.03265 0.309524,-0.0672 0.463538,-0.104903 0.06194,-0.01516 0.123302,-0.03336 0.185001,-0.04961 -0.0208,0.0026 -0.04154,0.005 -0.05736,0.0047 0.0444,-0.0097 0.09136,-0.02033 0.131775,-0.02946 0.08102,-0.0183 0.151518,-0.03625 0.199471,-0.05633 0.0028,-0.0012 0.0036,-0.0024 0.0062,-0.0036 -6.44e-4,-6.72e-4 -0.0085,-3.42e-4 -0.0083,-10e-4 2.04e-4,-7.13e-4 0.01446,-0.0023 0.0155,-0.0031 -0.0028,0.0014 -0.0042,0.0028 -0.0072,0.0041 0.0052,0.0055 0.02996,0.0088 0.06718,0.0088 0.0418,-6.5e-5 0.08978,-0.0034 0.112654,-0.01034 0.01143,-0.0035 0.01642,-0.0077 0.01137,-0.01292 -0.0051,-0.0052 -0.02023,-0.01122 -0.04961,-0.01809 -0.07902,0.01019 -0.112555,0.01802 -0.127124,0.02429 0.01287,-0.0064 0.02599,-0.013 0.03307,-0.02015 0.01036,-0.01045 0.01297,-0.02187 0.01085,-0.03411 0.0099,0.0025 0.0159,0.0074 0.02739,0.0088 0.03363,0.0041 0.07426,0.003 0.120923,-0.0041 0.04666,-0.0072 0.09977,-0.02028 0.158647,-0.04134 0.03829,-0.01147 0.07644,-0.02264 0.114721,-0.03411 0.254021,-0.0645 0.505558,-0.138048 0.756027,-0.214974 0.250466,-0.07693 0.499871,-0.157242 0.749825,-0.235644 0.03111,-0.01429 0.08915,-0.02945 0.14056,-0.04444 -0.105368,0.03384 -0.08415,0.02916 0.25063,-0.07235 0.02959,-0.0085 0.05922,-0.01962 0.08888,-0.02842 0.107876,-0.03194 0.216067,-0.06394 0.323494,-0.100769 0.136965,-0.04696 0.272852,-0.09868 0.405143,-0.157096 0.132295,-0.05842 0.261264,-0.123594 0.384473,-0.197404 0.06161,-0.03691 0.121846,-0.07633 0.180351,-0.117823 0.05851,-0.04149 0.115161,-0.08521 0.170015,-0.131775 -0.144871,-0.0076 -0.291776,-0.0072 -0.439249,-0.0057 -0.03528,3.64e-4 -0.07061,9.6e-5 -0.105937,5.17e-4 0.187446,-0.0031 0.376607,-0.0066 0.558105,-0.0057 0.237326,-0.366697 0.464663,-0.739803 0.698149,-1.108976 0.039,-0.03871 0.06928,-0.07789 0.09198,-0.115755 0.0227,-0.03787 0.03787,-0.07454 0.04599,-0.109037 0.0031,-0.01331 3.1e-4,-0.02415 0.0016,-0.03669 0.02295,-0.05015 0.03708,-0.08805 0.08475,-0.171049 0.005,-0.0117 0.0086,-0.0239 0.01344,-0.03566 0.03606,-0.08771 0.06945,-0.176418 0.0987,-0.266651 0.03317,-0.102325 0.06295,-0.206041 0.09147,-0.310058 0.05703,-0.208034 0.109083,-0.417762 0.173633,-0.622701 -8.42e-4,0.0012 -0.0017,0.0024 -0.0026,0.0036 0.0018,-0.0031 0.0028,-0.0067 0.0047,-0.0098 0.03759,-0.06458 0.06396,-0.119658 0.08062,-0.166915 0.01663,-0.04726 0.02369,-0.08656 0.02222,-0.118856 -5.51e-4,-0.01209 -0.0079,-0.01885 -0.01085,-0.02894 -0.02098,0.07944 -0.05486,0.207277 -0.04909,0.186552 0.0048,-0.01732 0.03128,-0.122016 0.04858,-0.188619 1.2e-4,4.08e-4 3.85e-4,0.0011 5.17e-4,0.0016 0.01246,-0.0472 0.0048,-0.01891 0.02997,-0.112654 5.2e-5,-0.0019 -5e-5,-0.0043 0,-0.0062 h 0.0015 c -0.0013,0.0049 -3.76e-4,0.0014 -0.0015,0.0062 -0.001,0.0376 -3.67e-4,0.07504 -0.0021,0.112654 -0.0049,0.113006 -0.01272,0.22642 -0.02222,0.339514 -0.0059,0.07028 -0.01598,0.140536 -0.02325,0.21084 0.02605,-0.02669 0.05549,-0.05214 0.07596,-0.08113 0.0091,-0.01286 0.01362,-0.02755 0.0217,-0.04082 0.02291,-0.03763 0.04565,-0.0752 0.0615,-0.115755 0.02141,-0.05486 0.03717,-0.112055 0.04858,-0.171049 0.01141,-0.05899 0.01843,-0.119671 0.02325,-0.181385 0.0097,-0.123429 0.0096,-0.250886 0.01344,-0.376721 0.0019,-0.06292 0.0047,-0.12567 0.01034,-0.187068 0.0056,-0.0614 0.01419,-0.121366 0.02687,-0.179834 0.0358,-0.420407 0.07169,-0.841016 0.107487,-1.261422 -3.4e-4,1.8e-4 -7.59e-4,3.37e-4 -10e-4,5.17e-4 0.0021,-0.01555 0.0047,-0.03096 0.0067,-0.04651 0.03557,-0.273068 0.0661,-0.546713 0.0863,-0.820622 0.0101,-0.136954 0.01756,-0.273794 0.02171,-0.410828 0.0041,-0.137034 0.0053,-0.274315 0.0021,-0.411344 -0.0032,-0.137029 -0.01074,-0.273891 -0.02274,-0.410828 -0.012,-0.136937 -0.02846,-0.273552 -0.05064,-0.41031 -0.0156,-0.220636 -0.03878,-0.440963 -0.06821,-0.659909 -0.02943,-0.218945 -0.06527,-0.436791 -0.107487,-0.653706 -0.04222,-0.216917 -0.09074,-0.432442 -0.144694,-0.646989 -0.05396,-0.214548 -0.113632,-0.427918 -0.178284,-0.639755 -0.06465,-0.211839 -0.133956,-0.422176 -0.208256,-0.630969 -0.0743,-0.20879 -0.15326,-0.416261 -0.236161,-0.621667 -0.0829,-0.205406 -0.169992,-0.409139 -0.260449,-0.610816 -0.09046,-0.201679 -0.184152,-0.401316 -0.28112,-0.59893 -0.09433,-0.179593 -0.191472,-0.357742 -0.290938,-0.534851 -0.09949,-0.177111 -0.201483,-0.353167 -0.305925,-0.527616 C 17.622824,14.168081 17.516128,13.995301 17.406872,13.823698 17.29762,13.652093 17.185917,13.481713 17.072009,13.313134 16.958101,13.144555 16.841592,12.977764 16.723193,12.81239 16.604794,12.647016 16.484186,12.482934 16.361458,12.320947 16.23873,12.15896 16.114217,11.998776 15.987321,11.840356 15.860425,11.681939 15.731167,11.525286 15.600264,11.370617 15.320215,11.08771 15.04221,10.801465 14.76189,10.516671 14.481414,10.231602 14.19898,9.9480795 13.910262,9.6722778 13.765903,9.5343773 13.619992,9.3981161 13.472046,9.2645508 13.3241,9.1309852 13.174471,9.0001653 13.021944,8.8723267 12.869418,8.7444878 12.713922,8.6199436 12.555823,8.4992228 12.397724,8.3785021 12.236796,8.2615845 12.072131,8.1493734 h -0.05839 z m 6.71897,18.8618976 -0.627869,1.002006 c 0.107256,-0.16531 0.216944,-0.329183 0.323495,-0.49506 0.106551,-0.165877 0.209966,-0.333761 0.304374,-0.506946 z m -4.92063,2.638599 c 0.0083,-0.0011 0.01375,-4.81e-4 0.02274,-0.0021 0.06616,-0.01119 0.151923,-0.03498 0.252181,-0.07183 -0.09106,0.02694 -0.183217,0.04976 -0.274919,0.0739 z"
       sodipodi:nodetypes="ccscsssccsscscssssscccssscsssscsscsssssscsssssscscssscssssccccscccssssssscsscccccccccssccccccccccccscccccccccssccsccscccccccscscccsccccsssscscccsccccscccccscccccccccsccscscccccccscsscsscssssccscssssccsssscccccscccccc" />
    <path
       style="fill:#fd9e32;fill-opacity:1;fill-rule:nonzero;stroke:none;stroke-width:1.7;stroke-dasharray:none;stroke-opacity:1;paint-order:stroke fill markers"
       d="m 4.5770201,25.532051 0.8271722,2.463135 2.7020962,1.102898 3.7314665,1.148849 3.860137,-0.81798 2.031168,-0.744456 1.029369,-0.836363 0.652548,-0.716884 0.11948,-0.643355 0.04595,-0.294106 0.03676,-0.340059 -0.02757,-0.689311 -0.193007,-1.277521 -2.895103,0.891508"
       id="path412" />
  </g>
  <g
     inkscape:label="Livello 2"
     inkscape:groupmode="layer"
     id="layer1"
     transform="translate(-72.528366,-108.14078)"
     style="display:inline">
    <path
       id="path127"
       style="display:inline;fill:#fcd955;stroke:none;stroke-opacity:1;paint-order:stroke fill markers;stroke-linecap:round;stroke-width:0.1;stroke-dasharray:none"
       d="m 85.200096,127.13366 c -0.228369,0.53055 -0.210343,1.15221 -0.34081,1.71897 -0.249784,1.47608 -0.667207,2.96857 -1.587864,4.17612 -0.19178,0.30601 -0.566434,0.43625 -0.854176,0.63487 -0.224824,0.1757 -0.432129,0.17905 -0.59505,-0.0632 -0.181372,-0.12763 -0.05407,-0.39218 -0.09165,-0.58359 -0.04648,-0.45613 -0.547619,0.30053 -0.617023,0.49171 -0.254107,0.38702 -0.226031,0.8684 -0.389114,1.28631 -0.237476,0.7139 0.0072,1.46379 0.189972,2.16545 -0.0018,0.26033 0.183486,0.34096 0.409835,0.3821 1.125574,0.35527 2.246637,0.74166 3.375018,1.07756 0.571671,-0.0279 1.152942,-6.3e-4 1.718686,-0.0625 0.813114,-0.26998 1.626229,-0.53995 2.439343,-0.80993 0.135438,-0.6237 0.309885,-1.23985 0.33539,-1.88128 -0.007,-0.47201 -0.05262,-0.9666 -0.09636,-1.44313 -0.197352,-0.57932 -0.346086,-1.17926 -0.573713,-1.74573 -0.278171,-0.5048 -0.545339,-1.02213 -0.822783,-1.52269 -0.148889,-0.22316 -0.06628,0.29495 -0.153934,0.40247 -0.08329,0.25631 -0.06707,0.57236 -0.329968,0.72087 -0.314444,0.3552 -0.506257,-0.41918 -0.622186,-0.63661 -0.534676,-1.37008 -0.843208,-2.81388 -1.303149,-4.20723 -0.02056,-0.0177 -0.03994,-0.11266 -0.09047,-0.10055 z m 8.803597,7.25641 c -0.533371,0.4778 -1.04709,0.98445 -1.51722,1.52445 0.533121,-0.47702 1.047086,-0.98541 1.51722,-1.52445 z" />
  </g>
  <g
     inkscape:groupmode="layer"
     id="layer5"
     inkscape:label="Livello 3"
     style="display:inline;fill:#291810;fill-opacity:1;stroke:#291810;stroke-width:0.2;stroke-linecap:round;stroke-linejoin:round;stroke-miterlimit:4;stroke-dasharray:none;stroke-opacity:1;paint-order:stroke markers fill"
     transform="translate(0.48125981,0.23537005)">
    <path
       style="display:inline;opacity:1;fill:#291810;fill-opacity:1;stroke:#291810;stroke-width:0.2;stroke-linecap:round;stroke-linejoin:round;stroke-miterlimit:4;stroke-dasharray:none;stroke-dashoffset:0;stroke-opacity:1;paint-order:stroke markers fill"
       d="m 84.45786,138.99996 -0.24811,-0.30099 -3.25056,-1.18359 -3.25055,-1.18359 -0.194487,0.0876 c -0.106966,0.0482 -0.270623,0.0876 -0.363682,0.0876 h -0.169198 l -0.217678,-0.21768 -0.217678,-0.21768 0.05215,-0.32616 0.05215,-0.32615 -1.487955,-3.753 -1.487954,-3.753 -0.136864,-0.0847 c -0.07528,-0.0466 -0.224828,-0.16866 -0.332341,-0.27132 l -0.195477,-0.18665 v -0.24749 -0.24748 l 0.132583,-0.11003 c 0.227058,-0.18844 2.229714,-5.55658 2.380287,-6.38039 0.02627,-0.14372 0.101149,-0.34704 0.166399,-0.45181 l 0.118635,-0.1905 h 0.331914 0.331914 l 0.131801,0.18817 0.131801,0.18817 v 0.22867 0.22866 l -0.211667,0.25155 -0.211667,0.25156 0.0047,0.53811 0.0047,0.53811 0.173234,-0.22222 c 0.09528,-0.12222 1.050565,-1.91292 2.12286,-3.97933 l 1.94962,-3.75712 -0.01,-0.37639 -0.01,-0.37639 0.12785,-0.19511 0.12784,-0.19511 h 0.32359 0.32359 l 0.14012,0.15484 0.14013,0.15483 v 2.51922 2.51922 l 0.10583,-0.0348 0.10583,-0.0348 1.25888,-2.6181 1.25888,-2.61809 0.0397,-0.381 0.0397,-0.381 0.24485,-0.21639 0.24484,-0.21639 0.55473,-1.16188 0.55473,-1.16188 -0.0996,-0.3324 -0.0996,-0.33239 0.14032,-0.21416 0.14033,-0.21416 0.21683,-0.0544 0.21684,-0.0544 0.20667,0.0942 0.20667,0.0942 0.094,0.20632 0.094,0.20631 -0.0958,0.27473 -0.0958,0.27473 2.16996,3.85937 c 1.19347,2.12266 2.22214,3.91489 2.28591,3.98274 l 0.11596,0.12337 0.0773,-0.081 c 0.0425,-0.0446 0.21766,-0.55367 0.38924,-1.13134 l 0.31198,-1.0503 -0.0529,-0.35274 -0.0529,-0.35274 0.17839,-0.22679 0.1784,-0.2268 h 0.2517 0.25171 l 0.20782,0.20782 0.20781,0.20782 -0.006,0.15201 c -0.003,0.0836 -0.0362,0.22822 -0.0731,0.32135 l -0.0672,0.16934 1.2554,2.51215 1.2554,2.51215 0.17333,0.055 0.17332,0.055 0.12903,0.2495 0.12902,0.2495 -0.0921,0.316 -0.0921,0.316 0.55848,2.95636 0.55848,2.95636 0.2503,0.28509 0.25031,0.28508 v 0.19391 0.1939 l -0.14817,0.14274 c -0.0815,0.0785 -0.23158,0.20899 -0.33354,0.28998 l -0.18538,0.14725 -0.55461,1.47397 -0.55461,1.47397 0.0515,0.43817 0.0515,0.43818 -0.2331,0.18335 -0.23309,0.18336 h -0.21146 -0.21146 l -0.94129,0.88586 c -0.51771,0.48722 -1.41587,1.33765 -1.9959,1.88985 l -1.05462,1.00399 0.0207,0.35057 0.0207,0.35058 -0.17257,0.17257 -0.17257,0.17258 h -0.26181 -0.26181 l -0.20699,-0.16282 -0.20698,-0.16281 -0.7377,0.20407 c -0.40574,0.11224 -1.40446,0.38231 -2.21938,0.60015 l -1.48166,0.39609 -0.29991,0.28232 -0.2999,0.28233 h -0.2231 -0.2231 z m 0.0216,-0.79557 0.0498,-0.0806 -0.2353,-0.24794 c -0.12941,-0.13637 -0.5043,-0.49479 -0.83307,-0.7965 l -0.59777,-0.54855 -0.96856,-0.0554 c -0.53271,-0.0305 -1.32098,-0.0785 -1.75173,-0.10667 l -0.78316,-0.0513 v 0.0831 0.0831 l 1.5875,0.57669 c 0.87312,0.31718 1.9685,0.72127 2.43416,0.89798 0.90961,0.34518 1.02136,0.37021 1.09814,0.24598 z m 1.37463,-0.32916 c 0.72045,-0.42668 1.36698,-0.85609 1.42129,-0.94395 l 0.0529,-0.0856 h -0.0727 c -0.10306,0 -2.23802,-0.15762 -2.92176,-0.21571 l -0.5715,-0.0485 -0.001,0.11096 -0.001,0.11096 0.69981,0.65249 0.69981,0.65248 0.14444,0.004 c 0.0794,0.002 0.32709,-0.10449 0.55033,-0.23671 z m 2.51361,-0.26043 c 1.95419,-0.54055 1.98758,-0.57173 0.70249,-0.65615 l -0.81348,-0.0534 -0.80375,0.47964 c -0.44207,0.2638 -0.8269,0.5171 -0.8552,0.56287 l -0.0514,0.0832 h 0.15844 c 0.0871,0 0.83546,-0.18727 1.66293,-0.41616 z m 3.36858,-2.03917 c 0.68085,-1.01942 0.7226,-1.10067 0.56548,-1.10067 -0.10448,0 -2.80736,1.63539 -3.067,1.85569 l -0.15789,0.13398 0.28489,0.0539 c 0.15669,0.0296 0.60874,0.0487 1.00456,0.0423 l 0.71967,-0.0115 z m -1.06968,-0.66206 2.45139,-1.50872 0.31256,-0.45978 c 0.90228,-1.32724 3.14311,-4.78564 3.26103,-5.03292 l 0.1361,-0.28539 -0.64948,-1.12673 c -0.35721,-0.61971 -1.4994,-2.57454 -2.5382,-4.34407 l -1.88874,-3.21733 -0.17544,-0.088 c -0.31535,-0.15813 -0.42896,-0.29466 -0.48245,-0.5798 l -0.0527,-0.28073 -1.2429,-1.04975 c -0.68359,-0.57736 -1.94819,-1.65299 -2.81023,-2.39029 l -1.56734,-1.34054 -0.25632,0.0513 c -0.37035,0.0741 -0.32408,-0.006 -1.85865,3.21468 l -1.40826,2.95553 0.0514,0.27406 0.0514,0.27405 -0.10509,0.19941 c -0.14316,0.27165 -0.23968,0.32361 -0.60392,0.32512 l -0.3125,0.001 -0.0523,-0.0847 c -0.0288,-0.0466 -0.11675,-0.0835 -0.1955,-0.0822 -0.1859,0.003 -3.84725,2.22695 -3.91731,2.37917 -0.02937,0.0638 -0.123054,0.26061 -0.208196,0.43735 l -0.154803,0.32135 0.280821,3.36165 c 0.334103,3.99949 -0.191606,2.99459 3.348318,6.40032 l 2.96334,2.851 0.16933,0.0376 c 0.24865,0.0552 3.52833,0.2709 4.32194,0.28427 l 0.68127,0.0115 z m -8.42828,1.05384 c 0,-0.0639 -0.18097,-0.2801 -0.40216,-0.4804 -0.22119,-0.20031 -1.34963,-1.2751 -2.50763,-2.38843 l -2.105462,-2.02423 -0.0666,0.0705 -0.0666,0.0705 0.183228,1.98967 0.183229,1.98967 0.204856,0.27418 0.204859,0.27418 0.25997,0.0436 c 0.20186,0.0339 2.68504,0.21501 3.92181,0.28606 l 0.1905,0.0109 z m 11.64033,-2.07887 c 0.82051,-0.80482 0.8547,-0.91679 0.15279,-0.50036 l -0.48934,0.29032 -0.31789,0.45503 c -0.17484,0.25026 -0.31789,0.4885 -0.31789,0.52943 v 0.0744 l 0.12451,-0.0697 c 0.0685,-0.0383 0.45,-0.38895 0.84782,-0.77916 z m -17.093963,-1.13225 c -0.07509,-0.89411 -0.156902,-1.78411 -0.181807,-1.97777 l -0.04528,-0.3521 -1.015122,-0.95003 -1.015122,-0.95002 -0.05469,0.0547 -0.05469,0.0547 1.002776,2.51743 c 0.551527,1.38459 1.096217,2.72699 1.210423,2.9831 l 0.207646,0.46567 0.0412,-0.11 c 0.02266,-0.0605 -0.02024,-0.84155 -0.09533,-1.73567 z m 17.945773,-0.35342 c 0.19655,-0.11518 0.37927,-0.26653 0.40605,-0.33633 0.0268,-0.0698 0.18827,-0.19463 0.35885,-0.27741 l 0.31015,-0.1505 0.5374,-1.397 c 0.29557,-0.76835 0.5386,-1.44688 0.54007,-1.50783 l 0.003,-0.11083 -0.0739,0.0457 c -0.0843,0.0521 -2.55072,3.81707 -2.55072,3.89363 0,0.0895 0.10612,0.0535 0.46947,-0.15943 z m -18.247984,-2.90208 c 8.17e-4,-0.0815 -0.09924,-1.34831 -0.222355,-2.81516 l -0.223839,-2.667 -0.06936,-0.0758 -0.06936,-0.0758 -0.851291,1.71283 c -0.46821,0.94205 -0.85129,1.77062 -0.85129,1.84126 v 0.12843 l 1.0795,1.0465 c 1.122029,1.08773 1.205524,1.15027 1.207986,0.90476 z m 19.983104,-5.32583 c -0.23757,-1.29672 -0.46803,-2.44339 -0.51212,-2.54817 l -0.0802,-0.1905 h -0.11405 c -0.14781,0 -0.44666,-0.32782 -0.52032,-0.57076 l -0.0575,-0.18976 -1.22276,-0.72328 c -0.67252,-0.3978 -1.28627,-0.74765 -1.36389,-0.77744 l -0.14114,-0.0542 0.0607,0.15805 c 0.17532,0.45687 4.28062,7.35637 4.34114,7.29585 0.0232,-0.0232 -0.15222,-1.10311 -0.3898,-2.39983 z m -21.629438,0.7548 0.712395,-1.48358 -0.04869,-0.43344 -0.04869,-0.43345 0.218582,-0.29161 0.218581,-0.29162 v -0.46615 -0.46615 l -0.07933,0.0804 c -0.112708,0.11428 -1.936711,5.23153 -1.892701,5.30998 l 0.0364,0.0649 0.08553,-0.0529 c 0.04704,-0.0291 0.406106,-0.72046 0.797923,-1.53643 z m 4.085078,-4.12593 1.61205,-0.97113 0.38686,-0.37599 0.38686,-0.37598 v -2.38411 -2.38411 l -0.17679,0.0271 -0.17679,0.0271 -1.89432,3.64066 c -1.04188,2.00237 -1.895773,3.66924 -1.897545,3.70417 -0.007,0.13815 0.206515,0.028 1.759675,-0.90763 z m 16.44043,-0.72281 c 0,-0.12904 -2.26738,-4.63456 -2.36163,-4.69281 l -0.082,-0.0507 -0.0694,0.10721 c -0.0381,0.059 -0.20572,0.55986 -0.37239,1.11309 l -0.30304,1.00587 0.12479,0.39113 c 0.0686,0.21512 0.14785,0.44078 0.17604,0.50146 0.11071,0.23836 2.88758,1.80079 2.88758,1.62473 z m -5.93289,-5.46884 c -0.70502,-1.25265 -1.60572,-2.85858 -2.00155,-3.56872 -0.8986,-1.61216 -0.75248,-1.60654 -1.49266,-0.0574 l -0.48836,1.02207 0.12838,0.24793 c 0.0706,0.13637 0.14758,0.34446 0.17107,0.46243 l 0.0427,0.2145 0.70149,0.59482 c 0.38582,0.32715 1.34946,1.14502 2.14141,1.8175 0.79196,0.67248 1.57156,1.3318 1.73246,1.46516 l 0.29253,0.24248 0.0272,-0.0816 c 0.015,-0.0449 -0.54964,-1.10648 -1.25466,-2.35914 z"
       id="path18683"
       inkscape:label="path18683"
       transform="translate(-73.009625,-108.37615)" />
    <ellipse
       style="display:inline;fill:#291810;fill-opacity:1;fill-rule:nonzero;stroke:#291810;stroke-width:0.226244;stroke-linecap:round;stroke-linejoin:round;stroke-miterlimit:4;stroke-dasharray:none;stroke-opacity:1;paint-order:stroke markers fill"
       id="path414"
       cx="8.2566652"
       cy="5.2488933"
       rx="0.79946125"
       ry="0.76478916" />
    <ellipse
       style="display:inline;fill:#291810;fill-opacity:1;fill-rule:nonzero;stroke:#291810;stroke-width:0.239647;stroke-linecap:round;stroke-linejoin:round;stroke-miterlimit:4;stroke-dasharray:none;stroke-opacity:1;paint-order:stroke markers fill"
       id="path414-48"
       cx="8.3110533"
       cy="11.369471"
       rx="0.8468219"
       ry="0.81009579" />
    <circle
       style="display:inline;fill:#291810;fill-opacity:1;fill-rule:nonzero;stroke:#291810;stroke-width:0.4;stroke-linecap:round;stroke-linejoin:round;stroke-miterlimit:4;stroke-dasharray:none;stroke-opacity:1;paint-order:stroke markers fill"
       id="path414-3"
       cx="12.06311"
       cy="4.2878013"
       r="0.69123089" />
    <circle
       style="display:inline;fill:#291810;fill-opacity:1;fill-rule:nonzero;stroke:#291810;stroke-width:0.4;stroke-linecap:round;stroke-linejoin:round;stroke-miterlimit:4;stroke-dasharray:none;stroke-opacity:1;paint-order:stroke markers fill"
       id="path414-56"
       cx="18.713594"
       cy="9.7718248"
       r="0.69123089" />
    <circle
       style="display:inline;fill:#291810;fill-opacity:1;fill-rule:nonzero;stroke:#291810;stroke-width:0.4;stroke-linecap:round;stroke-linejoin:round;stroke-miterlimit:4;stroke-dasharray:none;stroke-opacity:1;paint-order:stroke markers fill"
       id="path414-8"
       cx="19.912769"
       cy="6.3498731"
       r="0.69123089" />
    <circle
       style="display:inline;fill:#291810;fill-opacity:1;fill-rule:nonzero;stroke:#291810;stroke-width:0.4;stroke-linecap:round;stroke-linejoin:round;stroke-miterlimit:4;stroke-dasharray:none;stroke-opacity:1;paint-order:stroke markers fill"
       id="path414-88"
       cx="22.911556"
       cy="12.358921"
       r="0.69123089" />
    <circle
       style="display:inline;fill:#291810;fill-opacity:1;fill-rule:nonzero;stroke:#291810;stroke-width:0.4;stroke-linecap:round;stroke-linejoin:round;stroke-miterlimit:4;stroke-dasharray:none;stroke-opacity:1;paint-order:stroke markers fill"
       id="path414-31"
       cx="24.361826"
       cy="19.532305"
       r="0.69123089" />
    <circle
       style="display:inline;fill:#291810;fill-opacity:1;fill-rule:nonzero;stroke:#291810;stroke-width:0.4;stroke-linecap:round;stroke-linejoin:round;stroke-miterlimit:4;stroke-dasharray:none;stroke-opacity:1;paint-order:stroke markers fill"
       id="path414-59"
       cx="22.724937"
       cy="23.994852"
       r="0.69123089" />
    <circle
       style="display:inline;fill:#291810;fill-opacity:1;fill-rule:nonzero;stroke:#291810;stroke-width:0.446684;stroke-linecap:round;stroke-linejoin:round;stroke-miterlimit:4;stroke-dasharray:none;stroke-opacity:1;paint-order:stroke markers fill"
       id="path414-4"
       cx="17.793949"
       cy="28.715853"
       r="0.77190489" />
    <circle
       style="display:inline;fill:#291810;fill-opacity:1;fill-rule:nonzero;stroke:#291810;stroke-width:0.4;stroke-linecap:round;stroke-linejoin:round;stroke-miterlimit:4;stroke-dasharray:none;stroke-opacity:1;paint-order:stroke markers fill"
       id="path414-7"
       cx="11.896245"
       cy="30.34432"
       r="0.69123089" />
    <circle
       style="display:inline;fill:#291810;fill-opacity:1;fill-rule:nonzero;stroke:#291810;stroke-width:0.4;stroke-linecap:round;stroke-linejoin:round;stroke-miterlimit:4;stroke-dasharray:none;stroke-opacity:1;paint-order:stroke markers fill"
       id="path414-47"
       cx="4.1234846"
       cy="27.46715"
       r="0.69123089" />
    <circle
       style="display:inline;fill:#291810;fill-opacity:1;fill-rule:nonzero;stroke:#291810;stroke-width:0.4;stroke-linecap:round;stroke-linejoin:round;stroke-miterlimit:4;stroke-dasharray:none;stroke-opacity:1;paint-order:stroke markers fill"
       id="path414-0"
       cx="0.40997109"
       cy="18.773287"
       r="0.69123089" />
    <circle
       style="display:inline;fill:#291810;fill-opacity:1;fill-rule:nonzero;stroke:#291810;stroke-width:0.4;stroke-linecap:round;stroke-linejoin:round;stroke-miterlimit:4;stroke-dasharray:none;stroke-opacity:1;paint-order:stroke markers fill"
       id="path414-74"
       cx="3.2127042"
       cy="14.520009"
       r="0.69123089" />
    <circle
       style="display:inline;fill:#291810;fill-opacity:1;fill-rule:nonzero;stroke:#291810;stroke-width:0.4;stroke-linecap:round;stroke-linejoin:round;stroke-miterlimit:4;stroke-dasharray:none;stroke-opacity:1;paint-order:stroke markers fill"
       id="path414-5"
       cx="13.593466"
       cy="0.65586084"
       r="0.69123089" />
    <ellipse
       style="fill:#291810;fill-opacity:1;fill-rule:nonzero;stroke:#291810;stroke-width:0.4;stroke-linecap:round;stroke-linejoin:round;stroke-miterlimit:4;stroke-dasharray:none;stroke-opacity:1;paint-order:stroke markers fill"
       id="path415"
       cx="13.534378"
       cy="0.32592294"
       rx="0.051461518"
       ry="0.25730759" />
    <circle
       style="display:inline;fill:#291810;fill-opacity:1;fill-rule:nonzero;stroke:#291810;stroke-width:0.4;stroke-linecap:round;stroke-linejoin:round;stroke-miterlimit:4;stroke-dasharray:none;stroke-opacity:1;paint-order:stroke markers fill"
       id="path414-73"
       cx="2.995137"
       cy="11.945914"
       r="0.69123089" />
  </g>
  <g
     inkscape:groupmode="layer"
     id="layer4"
     inkscape:label="Livello 4"
     style="display:inline"
     transform="translate(0.48125981,0.23537005)" />
</svg>
