<?xml version="1.0" encoding="UTF-8" standalone="no"?>
<!-- Created with Inkscape (http://www.inkscape.org/) -->

<svg
   width="33.823002mm"
   height="33.894772mm"
   viewBox="0 0 33.823002 33.894772"
   version="1.1"
   id="svg1"
   inkscape:version="1.4 (e7c3feb100, 2024-10-09)"
   xml:space="preserve"
   sodipodi:docname="wins.svg"
   inkscape:export-filename="wins2.png"
   inkscape:export-xdpi="300"
   inkscape:export-ydpi="300"
   xmlns:inkscape="http://www.inkscape.org/namespaces/inkscape"
   xmlns:sodipodi="http://sodipodi.sourceforge.net/DTD/sodipodi-0.dtd"
   xmlns="http://www.w3.org/2000/svg"
   xmlns:svg="http://www.w3.org/2000/svg"><sodipodi:namedview
     id="namedview1"
     pagecolor="#ffffff"
     bordercolor="#666666"
     borderopacity="1.0"
     inkscape:showpageshadow="2"
     inkscape:pageopacity="0.0"
     inkscape:pagecheckerboard="0"
     inkscape:deskcolor="#d1d1d1"
     inkscape:document-units="mm"
     inkscape:zoom="1.9741048"
     inkscape:cx="-24.568098"
     inkscape:cy="126.89296"
     inkscape:window-width="1910"
     inkscape:window-height="1106"
     inkscape:window-x="26"
     inkscape:window-y="23"
     inkscape:window-maximized="0"
     inkscape:current-layer="layer1" /><defs
     id="defs1"><rect
       x="48.588421"
       y="395.22595"
       width="143.56187"
       height="120.30864"
       id="rect2" /><rect
       x="48.588421"
       y="395.22595"
       width="143.56187"
       height="120.30864"
       id="rect2-9" /><rect
       x="48.588421"
       y="395.22595"
       width="143.56187"
       height="120.30864"
       id="rect2-9-5" /></defs><g
     inkscape:label="Layer 1"
     inkscape:groupmode="layer"
     id="layer1"
     transform="translate(-75.543289,-75.451471)"><path
       style="display:inline;fill:#8b7eaa;fill-opacity:1;stroke:none;stroke-width:1.33182"
       d="m 90.989269,75.522577 c 1.995204,-0.2043 4.043414,0.0487 5.976324,0.54062 1.897578,0.48292 3.709757,1.3628 5.299767,2.49895 1.9948,1.42539 3.68304,3.25116 4.90845,5.37981 4.49032,7.80011 1.85354,18.191653 -5.81055,22.909053 -2.264129,1.39361 -4.809897,2.15492 -7.442207,2.42446 -1.993538,0.20411 -4.043654,-0.0507 -5.976328,-0.54067 -1.88271,-0.47723 -3.725761,-1.35057 -5.299761,-2.48646 -1.910801,-1.37895 -3.585661,-3.13403 -4.790984,-5.16673 -4.662928,-7.863753 -2.020238,-18.311443 5.693071,-23.132913 2.246724,-1.40438 4.820759,-2.15769 7.442218,-2.42612"
       id="path17" /><circle
       style="display:inline;fill:#e9b6ab;fill-opacity:1;stroke:none;stroke-width:0.1325;stroke-linecap:round;stroke-linejoin:round;stroke-miterlimit:4.1;paint-order:stroke markers fill"
       id="path16"
       cx="92.454788"
       cy="92.398849"
       r="12.725" /></g><g
     inkscape:groupmode="layer"
     id="layer2"
     inkscape:label="Layer 2"
     transform="translate(-75.543289,-75.451471)"><path
       id="path2-2"
       style="fill:#130202;fill-opacity:1;stroke:none;stroke-width:0.230775;stroke-linecap:round;stroke-linejoin:round;stroke-miterlimit:4.1;paint-order:stroke markers fill"
       d="m 96.341652,96.186857 a 0.93098235,0.94649881 0 0 0 -0.931209,0.9462 0.93098235,0.94649881 0 0 0 0.931209,0.94671 0.93098235,0.94649881 0 0 0 0.930693,-0.94671 0.93098235,0.94649881 0 0 0 -0.930693,-0.9462 z m 0,0.3452 a 0.59113359,0.60098583 0 0 1 0.591179,0.601 0.59113359,0.60098583 0 0 1 -0.591179,0.60099 0.59113359,0.60098583 0 0 1 -0.591178,-0.60099 0.59113359,0.60098583 0 0 1 0.591178,-0.601 z" /><path
       style="fill:none;stroke:#0a0100;stroke-width:0.355;stroke-linecap:butt;stroke-linejoin:miter;stroke-dasharray:none;stroke-opacity:1"
       d="m 92.366001,98.042057 -0.964256,-1.79304"
       id="path18-6-7"
       sodipodi:nodetypes="cc" /><path
       style="fill:none;stroke:#0a0100;stroke-width:0.355;stroke-linecap:butt;stroke-linejoin:miter;stroke-dasharray:none;stroke-opacity:1"
       d="m 93.789307,98.389597 1.824916,-0.8766"
       id="path18-6-1"
       sodipodi:nodetypes="cc" /><path
       id="path2-3-7"
       style="fill:#0c0100;fill-opacity:1;stroke:none;stroke-width:0.133831;stroke-linecap:round;stroke-linejoin:round;stroke-miterlimit:4.1;paint-order:stroke markers fill"
       d="m 94.286156,101.24986 a 0.53989327,0.54889154 0 0 0 -0.539501,0.54932 0.53989327,0.54889154 0 0 0 0.539501,0.5488 0.53989327,0.54889154 0 0 0 0.540019,-0.5488 0.53989327,0.54889154 0 0 0 -0.540019,-0.54932 z m 0,0.31213 a 0.23295827,0.23684093 0 0 1 0.233061,0.23719 0.23295827,0.23684093 0 0 1 -0.233061,0.23668 0.23295827,0.23684093 0 0 1 -0.232543,-0.23668 0.23295827,0.23684093 0 0 1 0.232543,-0.23719 z" /><path
       id="path2-3"
       style="fill:#0e0100;fill-opacity:1;stroke:none;stroke-width:0.233497;stroke-linecap:round;stroke-linejoin:round;stroke-miterlimit:4.1;paint-order:stroke markers fill"
       d="m 91.679921,101.22376 a 0.94196397,0.95766342 0 0 0 -0.942061,0.95757 0.94196397,0.95766342 0 0 0 0.942061,0.95756 0.94196397,0.95766342 0 0 0 0.942062,-0.95756 0.94196397,0.95766342 0 0 0 -0.942062,-0.95757 z m 0,0.37052 a 0.57747865,0.58710337 0 0 1 0.577226,0.58705 0.57747865,0.58710337 0 0 1 -0.577226,0.58704 0.57747865,0.58710337 0 0 1 -0.577742,-0.58704 0.57747865,0.58710337 0 0 1 0.577742,-0.58705 z" /><path
       id="path2-3-2"
       style="fill:#160807;fill-opacity:1;stroke:none;stroke-width:0.229652;stroke-linecap:round;stroke-linejoin:round;stroke-miterlimit:4.1;paint-order:stroke markers fill"
       d="m 88.614992,99.933397 a 0.92644995,0.9418909 0 0 0 -0.926558,0.942073 0.92644995,0.9418909 0 0 0 0.926558,0.94206 0.92644995,0.9418909 0 0 0 0.926558,-0.94206 0.92644995,0.9418909 0 0 0 -0.926558,-0.942073 z m 0,0.364323 a 0.56835914,0.57783186 0 0 1 0.568441,0.57775 0.56835914,0.57783186 0 0 1 -0.568441,0.57774 0.56835914,0.57783186 0 0 1 -0.568441,-0.57774 0.56835914,0.57783186 0 0 1 0.568441,-0.57775 z" /><path
       id="path2"
       style="fill:#0a0100;fill-opacity:1;stroke:none;stroke-width:0.286069;stroke-linecap:round;stroke-linejoin:round;stroke-miterlimit:4.1;paint-order:stroke markers fill"
       d="m 92.763576,97.731467 a 1.1540447,1.173279 0 0 0 -1.153935,1.17306 1.1540447,1.173279 0 0 0 1.153935,1.173573 1.1540447,1.173279 0 0 0 1.153935,-1.173573 1.1540447,1.173279 0 0 0 -1.153935,-1.17306 z m 0,0.32608 a 0.83316767,0.84705395 0 0 1 0.833024,0.84698 0.83316767,0.84705395 0 0 1 -0.833024,0.84697 0.83316767,0.84705395 0 0 1 -0.833024,-0.84697 0.83316767,0.84705395 0 0 1 0.833024,-0.84698 z" /><path
       id="path2-6"
       style="fill:#090000;fill-opacity:1;stroke:none;stroke-width:0.1318;stroke-linecap:round;stroke-linejoin:round;stroke-miterlimit:4.1;paint-order:stroke markers fill"
       d="m 91.267026,95.389497 a 0.53169674,0.54055846 0 0 0 -0.53175,0.54053 0.53169674,0.54055846 0 0 0 0.53175,0.54054 0.53169674,0.54055846 0 0 0 0.531751,-0.54054 0.53169674,0.54055846 0 0 0 -0.531751,-0.54053 z m 0,0.34003 a 0.19729701,0.20058531 0 0 1 0.197404,0.2005 0.19729701,0.20058531 0 0 1 -0.197404,0.20051 0.19729701,0.20058531 0 0 1 -0.197403,-0.20051 0.19729701,0.20058531 0 0 1 0.197403,-0.2005 z" /><path
       style="fill:#000000;fill-opacity:1;stroke:none"
       d="m 91.439065,87.826907 c -0.277262,4.4e-4 -0.981527,0.0178 -0.981527,0.0178 0,0 -0.03446,1.13499 -0.03448,1.50617 v 2.96333 c 0,0.37628 0.02772,1.45349 0.02772,1.45349 l 0.958457,-0.005 c 0,0 0.02983,-1.43767 0.02983,-1.95605 v -1.60866 -2.37067"
       id="path15" /><path
       style="fill:#000000;fill-opacity:1;stroke:none"
       d="m 99.143731,92.060287 c 0.053,1.08172 0.7612,1.75104 1.642849,1.84276 0.88164,0.0917 1.93672,-0.39416 2.12933,-1.50409 0.16449,-0.94792 -0.30128,-1.69753 -1.14752,-2.10958 -0.40563,-0.19751 -1.57703,-0.43568 -1.41349,-1.0652 0.14569,-0.56085 0.52958,-0.65391 0.9335,-0.64456 0.40392,0.009 0.76855,0.5876 0.76855,0.5876 0,0 0.51874,-0.33248 0.72745,-0.42322 -0.9058,-2.04571 -4.259639,-0.75203 -3.207469,1.28302 0.37579,0.72683 1.217179,0.81031 1.846659,1.24246 0.4362,0.29946 0.69846,0.79691 0.33954,1.27139 -0.34168,0.45168 -0.83833,0.62281 -1.26472,0.25513 -0.46861,-0.40409 -0.44474,-0.88032 -0.44474,-0.88032 0,0 -0.664099,0.092 -0.909939,0.14456"
       id="path14" /><path
       style="fill:#000000;fill-opacity:1;stroke:none"
       d="m 85.512403,87.573367 -1.524,4.064 -0.997173,-2.62467 -0.498935,-1.16906 -1.043892,-0.0163 2.579583,6.3599 1.569084,-3.98923 1.524,3.97933 1.113274,-2.54 1.596059,-3.81 -1.059166,0.006 -0.517178,1.17895 -1.048323,2.62467 h -0.08467 l -1.439334,-4.064 h -0.169333"
       id="path13" /><path
       style="display:inline;opacity:1;fill:#000000;fill-opacity:1;stroke:none"
       d="m 92.793736,87.403647 v 6.43466 h 0.931333 v -4.064 l 4.318002,4.40267 v -6.35 l -0.966524,-0.004 v 3.81 l -4.282811,-4.22894"
       id="path12"
       inkscape:label="N" /><path
       style="fill:none;stroke:#0a0100;stroke-width:0.355;stroke-linecap:butt;stroke-linejoin:miter;stroke-dasharray:none;stroke-opacity:1"
       d="m 89.360905,100.50496 2.398688,-1.099733"
       id="path18" /><path
       style="fill:none;stroke:#0a0100;stroke-width:0.355;stroke-linecap:butt;stroke-linejoin:miter;stroke-dasharray:none;stroke-opacity:1"
       d="m 91.974206,101.40139 0.422361,-1.482253"
       id="path18-6"
       sodipodi:nodetypes="cc" /><path
       style="fill:none;stroke:#0a0100;stroke-width:0.355;stroke-linecap:butt;stroke-linejoin:miter;stroke-dasharray:none;stroke-opacity:1"
       d="M 94.149467,101.46732 93.248964,99.841617"
       id="path18-6-3"
       sodipodi:nodetypes="cc" /></g></svg>
