<?xml version="1.0" encoding="UTF-8" standalone="no"?>
<svg
   version="1.1"
   viewBox="0 0 289.08541 293.08078"
   id="svg87"
   sodipodi:docname="yrCSS.svg"
   inkscape:version="1.3 (0e150ed6c4, 2023-07-21)"
   width="289.08542"
   height="293.08078"
   xml:space="preserve"
   inkscape:export-filename="yrCSS_900x900.png"
   inkscape:export-xdpi="298.87"
   inkscape:export-ydpi="298.87"
   xmlns:inkscape="http://www.inkscape.org/namespaces/inkscape"
   xmlns:sodipodi="http://sodipodi.sourceforge.net/DTD/sodipodi-0.dtd"
   xmlns="http://www.w3.org/2000/svg"
   xmlns:svg="http://www.w3.org/2000/svg"><defs
     id="defs87" /><sodipodi:namedview
     id="namedview87"
     pagecolor="#ffffff"
     bordercolor="#666666"
     borderopacity="1.0"
     inkscape:showpageshadow="2"
     inkscape:pageopacity="0.0"
     inkscape:pagecheckerboard="0"
     inkscape:deskcolor="#d1d1d1"
     showgrid="false"
     inkscape:zoom="1.377492"
     inkscape:cx="97.64122"
     inkscape:cy="201.81605"
     inkscape:window-width="1910"
     inkscape:window-height="1001"
     inkscape:window-x="26"
     inkscape:window-y="23"
     inkscape:window-maximized="0"
     inkscape:current-layer="svg87"><sodipodi:guide
       position="47.097864,321.94323"
       orientation="328,0"
       id="guide1"
       inkscape:locked="false" /><sodipodi:guide
       position="242.62894,291.44703"
       orientation="328,0"
       id="guide2"
       inkscape:locked="false" /><sodipodi:guide
       position="240.15846,47.490669"
       orientation="0,990"
       id="guide3"
       inkscape:locked="false" /><sodipodi:guide
       position="192.52865,247.44203"
       orientation="0,990"
       id="guide4"
       inkscape:locked="false" /></sodipodi:namedview><g
     stroke-width="2"
     fill="none"
     stroke-linecap="butt"
     id="g30"
     transform="translate(-11.601609,1.9478596)"><path
       stroke="#a45e4a"
       vector-effect="non-scaling-stroke"
       d="m 193.64,55.77 14.41,5.14 q 0.48,0.17 0.62,0.65 l 5.73,18.64"
       id="path1" /><path
       stroke="#a45e4a"
       vector-effect="non-scaling-stroke"
       d="m 191.25,64.96 q -14.34,-5.32 -29,-9.67"
       id="path2" /><path
       stroke="#a45e4a"
       vector-effect="non-scaling-stroke"
       d="m 150.21,55.25 -11.45,0.34 q -0.51,0.01 -0.66,0.49 L 135.29,65"
       id="path3" /><path
       stroke="#a45e4a"
       vector-effect="non-scaling-stroke"
       d="m 177.5,65.29 q 1.16,-0.79 2.46,-0.04"
       id="path4" /><path
       stroke="#a45e4a"
       vector-effect="non-scaling-stroke"
       d="m 218.5,92.96 9.51,0.01 q 0.57,0.01 0.4,-0.54 l -3.69,-12.17"
       id="path5" /><path
       stroke="#a45e4a"
       vector-effect="non-scaling-stroke"
       d="m 246.88,151.49 -0.12,14.33 q 0,0.49 -0.39,0.77 l -14.23,10.32"
       id="path6" /><path
       stroke="#a45e4a"
       vector-effect="non-scaling-stroke"
       d="m 237.78,151.77 q 0.55,-15.17 0.05,-30.23"
       id="path7" /><path
       stroke="#a45e4a"
       vector-effect="non-scaling-stroke"
       d="m 233.96,108 c -2.18,-2.54 -3.34,-8.55 -4.41,-11.91 q -0.16,-0.5 -0.69,-0.49 l -9.36,0.19"
       id="path8" /><path
       stroke="#a45e4a"
       vector-effect="non-scaling-stroke"
       d="m 232.25,135.96 q 1.35,1.02 0.65,2.7"
       id="path9" /><path
       stroke="#a45e4a"
       vector-effect="non-scaling-stroke"
       d="m 218.79,187 2.88,8.82 q 0.21,0.66 0.79,0.26 l 12.79,-9.04"
       id="path10" /><path
       stroke="#a45e4a"
       vector-effect="non-scaling-stroke"
       d="m 172.21,233.08 -11.06,3.54 q -0.54,0.18 -0.99,-0.16 l -13.26,-9.93 q -0.27,-0.2 -0.08,-0.47 l 0.18,-0.27"
       id="path11" /><path
       stroke="#a45e4a"
       vector-effect="non-scaling-stroke"
       d="m 168.54,224.59 28.93,-9.67"
       id="path12" /><path
       stroke="#a45e4a"
       vector-effect="non-scaling-stroke"
       d="m 212.15,204.04 6.96,-5.53 q 0.44,-0.34 0.26,-0.87 l -2.91,-8.89"
       id="path13" /><path
       stroke="#a45e4a"
       vector-effect="non-scaling-stroke"
       d="m 183.86,212.9 q -0.8,1.29 -2.24,1.46"
       id="path14" /><path
       stroke="#a45e4a"
       vector-effect="non-scaling-stroke"
       d="m 130.96,214.5 -7.63,5.59 a 0.49,0.48 45.9 0 0 -0.01,0.78 l 14.52,11"
       id="path15" /><path
       stroke="#a45e4a"
       vector-effect="non-scaling-stroke"
       d="m 75.63,185.13 -7.46,-10.62 q -0.29,-0.41 -0.12,-0.89 3.05,-8.61 5.38,-17.16 0.29,-1.04 0.88,-0.5"
       id="path16" /><path
       stroke="#a45e4a"
       vector-effect="non-scaling-stroke"
       d="m 82.29,178.75 q 8.56,12.94 17.93,25.2"
       id="path17" /><path
       stroke="#a45e4a"
       vector-effect="non-scaling-stroke"
       d="m 115.03,214.93 5.15,3.62 q 0.45,0.32 0.89,-0.01 l 7.68,-5.75"
       id="path18" /><path
       stroke="#a45e4a"
       vector-effect="non-scaling-stroke"
       d="m 95.89,188.4 q -1.3,0.11 -1.93,-1.4"
       id="path19" /><path
       stroke="#a45e4a"
       vector-effect="non-scaling-stroke"
       d="m 79.5,138.71 -7.61,-5.79 q -0.52,-0.39 -0.72,0.22 l -5.12,15.22"
       id="path20" /><path
       stroke="#a45e4a"
       vector-effect="non-scaling-stroke"
       d="m 88.87,78.07 9.24,-12.61 q 0.3,-0.41 0.81,-0.4 l 19.89,0.23"
       id="path21" /><path
       stroke="#a45e4a"
       vector-effect="non-scaling-stroke"
       d="M 96.83,82.65 79.04,107.5"
       id="path22" /><path
       stroke="#a45e4a"
       vector-effect="non-scaling-stroke"
       d="m 74.54,122 -2.15,7.36 q -0.15,0.51 0.28,0.82 l 7.49,5.42"
       id="path23" /><path
       stroke="#a45e4a"
       vector-effect="non-scaling-stroke"
       d="m 93.16,95.6 q -0.47,-1.53 0.92,-2.39"
       id="path24" /><path
       stroke="#a45e4a"
       vector-effect="non-scaling-stroke"
       d="m 132.54,65.25 2.9,-9.18 q 0.19,-0.59 -0.43,-0.6 l -12.79,-0.2"
       id="path25" /></g><path
     fill="#e85b30"
     d="m 182.03839,57.71786 14.41,5.14 c 0.32,0.113333 0.52667,0.33 0.62,0.65 l 5.73,18.639996 -7.23,-9.839996 c -0.19333,-0.266667 -0.45,-0.45 -0.77,-0.55 l -15.15,-4.85 c -9.56,-3.546667 -19.22667,-6.77 -29,-9.67 -4,-2.346667 -8.01333,-2.36 -12.04,-0.04 l -11.45,0.34 c -0.34,0.0067 -0.56,0.17 -0.66,0.49 l -2.81,8.92 -8.41,26.289996 c -0.10667,0.33334 -0.0567,0.64667 0.15,0.94 l 29.16,40.790004 c 0.12391,0.18252 0.39485,0.18252 0.53,0 l 28.78,-40.280004 c 0.29657,-0.42981 0.38131,-0.96773 0.23,-1.46 l -8.23,-25.989996 c 0.77333,-0.526667 1.59333,-0.54 2.46,-0.04 l 7.74,24.069996 c 0.0867,0.28667 0.28,0.43 0.58,0.43 h 11.54 c 0.67333,0 0.79333,0.25667 0.36,0.77 l -1.53,1.85 c -0.36667,0.43334 -0.26667,0.65 0.3,0.65 l 19.55,-0.06 9.51,0.01 c 0.38,0.007 0.51333,-0.17333 0.4,-0.54 l -3.69,-12.17 c 7.58,9.96 14.82667,20.126674 21.74,30.500004 0.19333,0.28667 0.29,0.60333 0.29,0.95 l 0.13,39.78 -0.12,14.33 c 0,0.32667 -0.13,0.58333 -0.39,0.77 l -14.23,10.32 5.47,-8.16 c 0.19333,-0.29333 0.29,-0.61333 0.29,-0.96 l -0.12,-16.02 c 0.36667,-10.11333 0.38333,-20.19 0.05,-30.23 l 0.13,-7.16 c 0.007,-0.33333 -0.0833,-0.63667 -0.27,-0.91 l -3.73,-5.47 c -5.20702,-6.09671 -3.34,-8.55 -4.41,-11.910004 -0.10667,-0.33333 -0.33667,-0.49666 -0.69,-0.49 l -9.36,0.19 -22.61,-0.16 c -0.34667,-0.007 -0.62,0.13 -0.82,0.41 l -31.35,43.860004 c -0.27333,0.38 -0.19,0.64667 0.25,0.8 l 41.53,13.85 c 0.36667,0.12 0.70667,0.0633 1.02,-0.17 l 24.73,-18.42 c 0.9,0.68 1.11667,1.58 0.65,2.7 l -23.32,17.31 c -0.32409,0.23961 -0.46089,0.65404 -0.34,1.03 l 9.55,30 2.88,8.82 c 0.14,0.44 0.40333,0.52667 0.79,0.26 l 12.79,-9.04 -22.81,32.17 c -0.19333,0.28 -0.45333,0.47333 -0.78,0.58 l -39.45,13.29 -11.06,3.54 c -0.36,0.12 -0.69,0.0667 -0.99,-0.16 l -13.26,-9.93 c -0.18,-0.13333 -0.20667,-0.29 -0.08,-0.47 l 0.18,-0.27 8.59,2.89 c 0.33333,0.11333 0.66667,0.11333 1,0 l 11.95,-4.09 37.90217,-12.76327 c 0.70657,-0.29999 0.60895,-0.27287 0.98402,-0.7307 1.55333,-1.99333 3.42381,-4.76936 4.72381,-7.05603 l 6.96,-5.53 c 0.29333,-0.22667 0.38,-0.51667 0.26,-0.87 l -2.91,-8.89 -9.67,-30.94 c -0.11333,-0.38 -0.36333,-0.63333 -0.75,-0.76 l -42.3,-14.08 c -1.10049,-0.36866 -2.23867,0.4494 -2.24,1.61 v 51.19 c 0,0.36 0.14333,0.64667 0.43,0.86 l 21.93,16.27 c -0.53333,0.86 -1.09661,1.49873 -2.05661,1.61206 l -22.09339,-16.38206 c -0.26,-0.19333 -0.55,-0.30333 -0.87,-0.33 -3.03,-0.26 -4.89,-0.46 -7.49,1.44 -6.86667,5.00667 -13.66333,10.09333 -20.39,15.26 l -7.63,5.59 c -0.26477,0.18506 -0.2698,0.5774 -0.01,0.78 l 14.52,11 c -12.2,-3.72 -24.26,-7.63333 -36.180003,-11.74 -0.64,-0.22 -1.16333,-0.61333 -1.57,-1.18 -8.13333,-11.29333 -16.286663,-22.56667 -24.459996,-33.82 l -7.46,-10.62 c -0.193333,-0.27333 -0.233333,-0.57 -0.12,-0.89 2.033333,-5.74 3.826667,-15.46 5.38,-21.16 0.193333,-0.69333 0.731368,-0.66572 0.88,3.5 l 0.16,11.58 c 0.0067,0.34 0.106667,0.64333 0.3,0.91 l 7.52,10.3 c 5.706666,8.62667 11.683336,17.02667 17.929996,25.2 l 5.37,7.71 c 0.18667,0.27333 0.44,0.45667 0.76,0.55 l 8.680003,2.72 5.15,3.62 c 0.3,0.21333 0.59667,0.21 0.89,-0.01 l 7.68,-5.75 21.83,-16.18 c 0.28,-0.20667 0.42,-0.48667 0.42,-0.84 v -51.72 c -1.4e-4,-0.5651 -0.36793,-1.06626 -0.91,-1.24 -0.48667,-0.16 -0.96667,-0.16 -1.44,0 -14.10667,4.70667 -28.14333,9.35333 -42.110003,13.94 -0.37138,0.12606 -0.66068,0.41907 -0.78,0.79 l -9.87,30.86 c -0.86666,0.0733 -1.51,-0.39333 -1.93,-1.4 l 9.38,-30.07 c 0.1,-0.32 0.0167,-0.58 -0.25,-0.78 l -23.589996,-17.44 -7.61,-5.79 c -0.346667,-0.26 -0.586667,-0.18667 -0.72,0.22 l -5.12,15.22 c -0.353333,-12.12667 -0.45,-24.16333 -0.29,-36.11 0.01,-0.84 0.46,-2 1.02,-2.79 6.96,-9.83333 13.94,-19.660004 20.94,-29.480004 0.453336,-0.62666 0.836666,-1.26333 1.149996,-1.91 l 9.24,-12.609996 c 0.2,-0.273333 0.47,-0.406667 0.81,-0.4 l 19.890003,0.23 -12.450003,4.32 c -0.32,0.113333 -0.57667,0.306667 -0.77,0.58 l -8.76,12.459996 -17.789996,24.850004 -4.27,5.96 c -0.2,0.28 -0.3,0.59 -0.3,0.93 l 0.07,7.61 -2.15,7.36 c -0.1,0.34 -0.0067,0.61333 0.28,0.82 l 7.49,5.42 24.739996,18.64 c 0.24,0.17333 0.5,0.21667 0.78,0.13 l 42.440003,-13.91 c 0.16791,-0.0546 0.23373,-0.25711 0.13,-0.4 l -31.4,-43.960004 c -0.21333,-0.30666 -0.50667,-0.46 -0.88,-0.46 l -22.810003,-0.04 c -0.31333,-1.02 -0.007,-1.81666 0.92,-2.39 l 19.770003,-0.28 c 0.39153,-0.0145 0.59979,-0.46671 0.35,-0.76 l -1.43,-1.73 c -0.38,-0.46 -0.27333,-0.69 0.32,-0.69 h 11.13 c 0.30667,0 0.50667,-0.14333 0.6,-0.43 l 7.72,-24.069996 2.9,-9.18 c 0.12667,-0.393333 -0.0167,-0.593333 -0.43,-0.6 l -12.79,-0.2 c 11.04667,-3.946667 22.07333,-7.69 33.08,-11.23 0.45333,-0.146667 1.14333,-0.07 2.07,0.23 11.95,3.86 24.14,8.5 36.27,11.5 z"
     id="path31"
     sodipodi:nodetypes="cccccccccccccccccccccssccccccccccccccccccccccccccccccccccccccccccccccccccccccccccsccccccccccccccccccccccccccccscccccccccccccccccccccccccccccccccccccccccsscccccccc" /><path
     fill="#5f6063"
     d="m 110.61839,57.21786 12.79,0.2 q 0.62,0.01 0.43,0.6 l -2.9,9.18 q -6.92,-0.63 -13.73,0.04 l -19.890003,-0.23 q -0.51,-0.01 -0.81,0.4 l -9.24,12.609996 q 2.68,-9.229996 5.73,-18.249996 c 1.07,-3.18 1.97,-4.3 5.61,-4.27 q 11.06,0.07 22.010003,-0.28 z"
     id="path32" /><path
     fill="#5f6063"
     d="m 138.60839,57.19786 q 6.02,0.66 12.04,0.04 14.66,4.35 29,9.67 l -11.29,0.29 q -1.3,-0.75 -2.46,0.04 l -42.21,-0.29 2.81,-8.92 q 0.15,-0.48 0.66,-0.49 z"
     id="path33" /><path
     fill="#5f6063"
     d="m 182.03839,57.71786 q 14.71,-0.7 20.55,-0.23 c 1.73,0.14 3.23,2.29 3.77,4.06 q 3.18,10.42 6.76,20.659996 l 3.69,12.17 q 0.17,0.55 -0.4,0.54 l -9.51,-0.01 q -1.55,-6.57 -4.1,-12.76 l -5.73,-18.639996 q -0.14,-0.48 -0.62,-0.65 z"
     id="path34" /><path
     fill="#5f6063"
     d="m 85.228387,84.597856 -2.75,10.56 q -1.39,0.86 -0.92,2.39 l -12.999996,40.000004 -7.49,-5.42 q -0.43,-0.31 -0.28,-0.82 l 2.15,-7.36 q 2.86,-7.06 4.5,-14.5 z"
     id="path36" /><path
     fill="#5f6063"
     d="m 226.22839,123.48786 c 0.33333,10.04 0.31667,20.11667 -0.05,30.23 l -4.88,-13.11 c 0.46667,-1.12 0.25,-2.02 -0.65,-2.7 l -12.75,-40.170004 9.36,-0.19 c 0.35333,-0.007 0.58333,0.15667 0.69,0.49 z"
     id="path37"
     sodipodi:nodetypes="cccccccc" /><path
     fill="#5f6063"
     d="m 67.898391,140.65786 -11.45,34.91 c -0.113333,0.32 -0.07333,0.61667 0.12,0.89 l 7.46,10.62 c -6.406667,-4.24 -11.29,-7.77667 -14.65,-10.61 -1.52,-1.28667 -1.91,-3.04 -1.17,-5.26 2.293333,-6.94 4.373333,-13.90667 6.24,-20.9 l 5.12,-15.22 c 0.133333,-0.40667 0.373333,-0.48 0.72,-0.22 z"
     id="path41"
     sodipodi:nodetypes="cccccccccc" /><path
     fill="#5f6063"
     d="m 235.27839,151.43786 c 2.11547,7.48169 4.88,15.68 6.08,20.52 0.59,2.4 -0.83,4.22 -2.86,5.65 -5.10667,3.59333 -10.05667,7.38667 -14.85,11.38 l -12.79,9.04 c -0.38667,0.26667 -0.65,0.18 -0.79,-0.26 l -2.88,-8.82 13.35,-10.09 14.23,-10.32 c 0.26,-0.18667 0.39,-0.44333 0.39,-0.77 z"
     id="path43"
     sodipodi:nodetypes="ccccccccccc" /><path
     fill="#5f6063"
     d="m 70.688391,180.69786 11.669996,8.25 q 0.63,1.51 1.93,1.4 l 32.860003,24.39 -7.68,5.75 q -0.44,0.33 -0.89,0.01 l -5.15,-3.62 -14.810003,-10.98 q -9.37,-12.26 -17.929996,-25.2 z"
     id="path44" /><path
     fill="#5f6063"
     d="m 204.85839,190.69786 2.91,8.89 c 0.12,0.35333 0.0333,0.64333 -0.26,0.87 l -6.96,5.53 c -5.09333,3.35333 -9.98667,6.98 -14.68,10.88 l -28.93,9.67 c 15.72369,-12.27737 31.9247,-23.91029 47.92,-35.84 z"
     id="path45"
     sodipodi:nodetypes="ccccccc" /><path
     fill="#5f6063"
     d="m 119.35839,216.44786 c 4.47,3.51 10.84,9.38 16.04,11.29 l -0.18,0.27 q -0.19,0.27 0.08,0.47 l 13.26,9.93 q 0.45,0.34 0.99,0.16 l 11.06,-3.54 q -7.68,6.52 -13.39,10.26 c -2.98,1.95 -4.83,0.23 -7.62,-1.87 q -6.62,-4.95 -13.36,-9.6 l -14.52,-11 a 0.49,0.48 45.9 0 1 0.01,-0.78 z"
     id="path46" /><g
     id="g1"
     style="display:none"
     transform="translate(-11.601609,1.9478596)"><circle
       fill="#5f6063"
       cx="911.14001"
       cy="286.04001"
       r="2.3499999"
       id="circle46" /><path
       fill="#5f6063"
       d="m 620.75,293.51 v 6.62 q 0,0.62 -0.63,0.62 h -3.49 q -0.63,0 -0.63,-0.63 v -6.38 q 0,-0.62 -0.59,-0.77 -1.39,-0.37 -1.09,-2.19 0.07,-0.47 0.54,-0.53 l 0.27,-0.04 q 0.47,-0.07 0.56,-0.53 1.12,-5.98 7.15,-4.32 0.5,0.14 0.46,0.66 l -0.13,2.08 q -0.05,0.65 -0.7,0.65 h -1.3 q -1.11,0 -0.39,0.84 0.57,0.66 1.64,0.43 0.58,-0.12 0.58,0.47 v 1.83 q 0,0.63 -0.63,0.65 l -1.13,0.04 q -0.49,0.02 -0.49,0.5 z"
       id="path47" /><path
       fill="#5f6063"
       d="m 554.4,290.47 0.52,-0.51 q 0.3,-0.3 0.71,-0.42 c 6.96,-1.91 6.07,6.04 5.77,10.65 q -0.04,0.56 -0.6,0.56 h -3.4 q -0.61,0 -0.62,-0.6 l -0.1,-5.8 q -0.01,-0.58 -0.54,-0.82 c -3.07,-1.41 -2.46,4.6 -2.35,6.65 q 0.03,0.57 -0.53,0.57 h -3.51 Q 549,300.75 549,300 v -14.09 q 0,-0.66 0.66,-0.66 h 3.59 q 0.5,0 0.5,0.5 v 4.45 q 0,0.92 0.65,0.27 z"
       id="path48" /><path
       fill="#5f6063"
       d="m 645.54,293.86 a 0.93,0.92 73.9 0 0 -1.37,-0.76 c -2.13,1.2 -1.4,5.13 -1.45,7.17 q -0.01,0.48 -0.49,0.48 h -3.48 Q 638,300.75 638,300 v -14 q 0,-0.75 0.75,-0.75 h 3.5 q 0.5,0 0.5,0.5 v 4.44 q 0,0.84 0.63,0.28 l 0.78,-0.7 q 0.35,-0.31 0.8,-0.4 c 6.62,-1.26 5.76,6.52 5.45,10.82 q -0.04,0.56 -0.6,0.56 h -3.37 q -0.56,0 -0.59,-0.56 z"
       id="path49" /><rect
       fill="#5f6063"
       x="-2.3699999"
       y="-7.7399998"
       transform="rotate(-0.1,168244.55,-421498.76)"
       width="4.7399998"
       height="15.48"
       rx="0.38999999"
       id="rect49" /><path
       fill="#5f6063"
       d="m 679.61,291.42 c -7.33,-7.51 -7.8,11.15 0,4.09 q 0.51,-0.46 0.94,0.08 l 1.87,2.36 q 0.37,0.47 -0.1,0.82 c -12.46,9.13 -19.61,-10.99 -6.85,-12.81 q 3.74,-0.53 6.98,2.17 0.34,0.28 0.07,0.63 l -1.99,2.61 q -0.43,0.56 -0.92,0.05 z"
       id="path50" /><path
       fill="#5f6063"
       d="m 777.97,295.82 -5.14,-1.83 q -0.57,-0.2 -0.9,-0.72 c -2.1,-3.33 -0.42,-6.32 3.15,-7.18 q 4.11,-0.99 8.05,1.12 0.48,0.26 0.26,0.76 l -1.18,2.7 q -0.23,0.52 -0.76,0.3 c -0.81,-0.33 -5.27,-2.57 -5.47,-0.77 a 0.76,0.75 -81.4 0 0 0.61,0.83 q 2.42,0.44 4.42,1.57 c 3.76,2.11 3.17,6.83 -0.83,8.07 q -4.71,1.46 -9.67,-1.7 -0.44,-0.28 -0.22,-0.75 l 1.2,-2.59 q 0.31,-0.66 0.89,-0.23 c 0.7,0.52 6.41,3.44 6.12,1.08 q -0.06,-0.49 -0.53,-0.66 z"
       id="path51" /><path
       fill="#5f6063"
       d="m 874.64,289.78 a 0.77,0.77 0 0 0 0.43,1.19 c 14.62,3.74 3.62,14.29 -6.06,8.04 q -0.47,-0.3 -0.23,-0.8 l 1.32,-2.78 q 0.27,-0.56 0.75,-0.15 2.35,2.04 5.51,1.99 0.64,-0.01 0.64,-0.65 0,-0.15 0,-0.3 0,-0.35 -0.33,-0.47 l -5.58,-1.94 a 2.13,2.11 -86.6 0 1 -1.37,-1.56 c -1.57,-7.45 7.48,-7.6 11.83,-5.1 q 0.51,0.3 0.28,0.84 l -1.05,2.43 q -0.26,0.6 -0.88,0.38 c -0.99,-0.36 -4.54,-2.12 -5.26,-1.12 z"
       id="path52" /><path
       fill="#5f6063"
       d="m 400.97,291.17 2.39,-4.94 a 0.41,0.41 0 0 1 0.4,-0.23 l 3.78,0.33 a 0.41,0.41 0 0 1 0.32,0.6 l -4.81,9.2 a 0.41,0.41 0 0 0 -0.05,0.19 v 4.02 a 0.41,0.41 0 0 1 -0.41,0.41 h -4.24 a 0.41,0.41 0 0 1 -0.41,-0.45 l 0.34,-3.51 a 0.41,0.41 0 0 0 -0.05,-0.23 l -5.19,-9.89 a 0.41,0.41 0 0 1 0.37,-0.6 l 3.99,0.11 a 0.41,0.41 0 0 1 0.35,0.22 l 2.48,4.78 a 0.41,0.41 0 0 0 0.74,-0.01 z"
       id="path53" /><path
       fill="#5f6063"
       d="m 628.36,293.01 c -1.85,-0.41 -1.6,-2.88 0.23,-3.16 q 0.54,-0.09 0.46,-0.63 l -0.28,-1.91 q -0.08,-0.56 0.49,-0.56 H 633 q 0.5,0 0.5,0.5 v 2.12 q 0,0.63 0.63,0.63 h 1.5 q 0.62,0 0.62,0.63 v 1.7 q 0,0.63 -0.64,0.65 l -1.62,0.03 q -0.5,0.01 -0.5,0.51 l 0.03,3.08 q 0,0.65 0.65,0.65 h 1.17 q 0.6,0 0.68,0.59 l 0.28,2.05 q 0.07,0.51 -0.42,0.68 c -3.03,1.03 -7.25,0.32 -6.92,-3.81 q 0.14,-1.81 -0.04,-3.15 -0.07,-0.49 -0.56,-0.6 z"
       id="path54" /><path
       fill="#5f6063"
       d="m 814.75,293.56 v 2.97 q 0,0.67 0.67,0.67 2.49,0 1.93,2.79 -0.08,0.4 -0.45,0.54 c -5.16,1.93 -7.37,-1.29 -6.92,-6.4 a 1.28,1.27 -79.8 0 0 -0.93,-1.35 q -1.31,-0.35 -0.35,-1.97 0.24,-0.39 0.63,-0.63 1.27,-0.79 0.55,-2.75 -0.25,-0.66 0.46,-0.67 l 3.65,-0.02 q 0.76,0 0.76,0.76 v 1.99 q 0,0.49 0.49,0.5 l 1.62,0.03 q 0.64,0.02 0.64,0.65 v 1.48 q 0,0.64 -0.64,0.72 l -1.67,0.19 q -0.44,0.06 -0.44,0.5 z"
       id="path55" /><path
       fill="#5f6063"
       d="m 937,290.25 -0.29,2.27 q -0.05,0.48 -0.53,0.48 h -1.71 q -0.54,0 -0.51,0.54 l 0.14,3.15 q 0.02,0.56 0.58,0.56 h 0.96 q 0.66,0 0.79,0.65 l 0.35,1.87 q 0.1,0.53 -0.41,0.73 c -6,2.38 -7.17,-2.01 -6.97,-6.7 q 0.02,-0.51 -0.47,-0.66 -1.49,-0.45 -1.16,-2.16 0.11,-0.52 0.58,-0.77 l 0.83,-0.43 q 0.43,-0.23 0.35,-0.71 l -0.28,-1.6 q -0.12,-0.72 0.6,-0.72 h 3.65 q 0.5,0 0.5,0.5 v 2.2 q 0,0.46 0.47,0.52 z"
       id="path56" /><path
       fill="#5f6063"
       d="m 419.87,295.0813 a 6.49,5.92 0.1 0 1 -6.5003,5.9087 6.49,5.92 0.1 0 1 -6.4797,-5.9313 6.49,5.92 0.1 0 1 6.5003,-5.9087 6.49,5.92 0.1 0 1 6.4797,5.9313 z m -6.49,2.2687 a 2.22,1.7 90 0 0 1.7,-2.22 2.22,1.7 90 0 0 -1.7,-2.22 2.22,1.7 90 0 0 -1.7,2.22 2.22,1.7 90 0 0 1.7,2.22 z"
       id="path57" /><path
       fill="#5f6063"
       d="m 427.3,300.34 c -7.62,1.89 -6.65,-5.04 -6.16,-10.5 q 0.06,-0.59 0.64,-0.59 h 3.34 q 0.62,0 0.63,0.62 l 0.01,5.99 q 0,0.62 0.59,0.81 c 3.06,0.97 2.19,-5.35 2.12,-6.81 q -0.03,-0.61 0.58,-0.61 h 3.54 q 0.65,0 0.65,0.65 l 0.01,10.13 q 0,0.6 -0.59,0.68 -2.31,0.31 -4.53,-0.35 -0.41,-0.12 -0.83,-0.02 z"
       id="path58" /><path
       fill="#5f6063"
       d="m 441.25,290 c 1.99,-1.31 4.45,-0.96 5.68,0.81 1.4,2.02 0.82,6.78 0.82,9.43 q 0,0.51 -0.51,0.51 h -3.49 Q 443,300.75 443,300 v -5.3 a 1.39,1.39 0 0 0 -1.65,-1.37 c -1.7,0.31 -1.07,5.55 -1.15,6.94 q -0.03,0.48 -0.51,0.48 h -3.44 q -0.75,0 -0.75,-0.75 v -9.94 q 0,-0.49 0.47,-0.64 2.49,-0.76 4.63,0.59 0.32,0.21 0.65,-0.01 z"
       id="path59" /><path
       fill="#5f6063"
       d="m 456.31,299.27 c -9.16,4.61 -9.95,-13.01 -0.67,-9.61 q 0.48,0.17 0.96,0.01 1.98,-0.68 4.11,-0.38 0.5,0.07 0.51,0.58 c 0.06,3.02 0.77,10.39 -0.9,12.8 -2.22,3.2 -7.27,2.66 -10.4,1.27 q -0.47,-0.21 -0.27,-0.68 l 0.92,-2.16 q 0.27,-0.63 0.9,-0.37 c 2.11,0.87 4.41,1.4 5.31,-1.04 a 0.34,0.34 0 0 0 -0.47,-0.42 z m -1.4008,-2.5209 a 2.05,1.57 91.7 0 0 1.6301,-2.0025 2.05,1.57 91.7 0 0 -1.5085,-2.0957 2.05,1.57 91.7 0 0 -1.6301,2.0025 2.05,1.57 91.7 0 0 1.5085,2.0957 z"
       id="path60" /><path
       fill="#5f6063"
       d="m 472.97,290.27 2,-1.01 q 0.55,-0.27 0.78,0.29 0.71,1.72 0.07,3.24 -0.16,0.39 -0.56,0.49 l -2.16,0.52 q -0.6,0.14 -0.6,0.76 v 5.69 q 0,0.5 -0.5,0.5 h -3.75 q -0.5,0 -0.5,-0.5 v -10.37 q 0,-0.63 0.63,-0.63 h 3.11 q 0.62,0 0.92,0.55 0.07,0.12 0.12,0.28 0.11,0.35 0.44,0.19 z"
       id="path61" /><path
       fill="#5f6063"
       d="m 481.56,296.83 c 1.07,2.05 3.92,-1.39 5.73,1.47 a 1.1,1.09 -29.8 0 1 -0.43,1.56 c -4.21,2.14 -10.08,1.22 -10.37,-4.62 -0.37,-7.39 11.77,-8.77 12.27,0.21 a 0.69,0.68 -1.2 0 1 -0.7,0.72 l -6.02,-0.11 q -0.89,-0.02 -0.48,0.77 z m 2.42,-3.66 c -0.62,-1.05 -2.37,-1.08 -2.71,0.14 q -0.18,0.69 0.53,0.69 h 1.71 a 0.55,0.55 0 0 0 0.47,-0.83 z"
       id="path62" /><path
       fill="#5f6063"
       d="m 495.35,297.11 c -2.64,-0.75 -6.05,-1.21 -5.26,-5.38 q 0.1,-0.5 0.5,-0.82 4.18,-3.28 9.2,-0.52 0.42,0.23 0.2,0.66 l -0.88,1.69 q -0.25,0.47 -0.76,0.34 l -3.96,-0.97 a 0.39,0.39 0 0 0 -0.23,0.74 c 1.89,0.73 4.85,1.31 5.65,3.17 2.47,5.75 -7.18,5.31 -10.01,3.62 q -0.49,-0.3 -0.23,-0.8 l 0.63,-1.23 a 1.29,1.29 0 0 1 1.79,-0.53 q 1.5,0.87 3.23,0.9 3.42,0.07 0.13,-0.87 z"
       id="path63" /><path
       fill="#5f6063"
       d="m 506.02,296.58 c 1.76,2.49 4.08,-1.41 6.02,1.99 q 0.26,0.45 -0.14,0.78 c -7.91,6.42 -15.59,-5.93 -7.67,-9.48 4.39,-1.96 8.58,0.3 9.04,5.32 q 0.09,1.01 -0.93,1 l -6.08,-0.07 a 0.29,0.29 0 0 0 -0.24,0.46 z m 2.41,-3.44 c -0.5,-1.14 -2.23,-0.91 -2.57,0.23 q -0.21,0.7 0.52,0.65 l 1.57,-0.09 q 0.8,-0.05 0.48,-0.79 z"
       id="path64" /><path
       fill="#5f6063"
       d="m 520.91,293.56 c 0.07,-1.39 -3.9,-0.69 -4.64,-0.42 q -0.59,0.22 -0.79,-0.37 l -0.65,-1.87 q -0.17,-0.5 0.32,-0.71 c 2.45,-1.03 7.59,-1.81 9.54,0.56 1.38,1.7 0.8,7.08 0.82,9.32 q 0,0.54 -0.54,0.63 -2.22,0.37 -4.3,-0.37 -0.42,-0.16 -0.81,0.08 c -3.41,2.08 -7.39,-1.02 -5.36,-5 q 0.23,-0.46 0.7,-0.65 2.46,-1.05 5.15,-0.72 0.53,0.06 0.56,-0.48 z m 0.1215,2.9967 a 1.42,0.96 -16.5 0 0 -1.6342,-0.5172 1.42,0.96 -16.5 0 0 -1.0888,1.3238 1.42,0.96 -16.5 0 0 1.6342,0.5172 1.42,0.96 -16.5 0 0 1.0888,-1.3238 z"
       id="path65" /><path
       fill="#5f6063"
       d="m 532.74,290.31 2.59,-1.29 a 0.29,0.29 0 0 1 0.42,0.26 v 3.55 a 0.29,0.29 0 0 1 -0.22,0.28 l -2.89,0.77 a 0.29,0.29 0 0 0 -0.22,0.26 l -0.24,6.33 a 0.29,0.29 0 0 1 -0.29,0.28 h -3.97 a 0.29,0.29 0 0 1 -0.29,-0.29 l -0.19,-10.92 a 0.29,0.29 0 0 1 0.29,-0.29 h 4.12 a 0.29,0.29 0 0 1 0.27,0.2 l 0.22,0.69 a 0.29,0.29 0 0 0 0.4,0.17 z"
       id="path66" /><path
       fill="#5f6063"
       d="m 540.98,300.76 c -10.74,-3.05 -0.65,-17.8 6.58,-9.01 q 0.32,0.39 -0.05,0.73 -2.3,2.06 -4.74,0.6 -0.58,-0.35 -0.97,0.2 -1.27,1.84 0.04,3.78 0.34,0.5 0.84,0.16 2.47,-1.69 4.89,0.54 0.37,0.35 0.03,0.72 -2.98,3.32 -6.62,2.28 z"
       id="path67" /><path
       fill="#5f6063"
       d="m 567.71,296.79 c 1.25,2.06 3.82,-1.36 5.87,1.6 a 0.86,0.85 58.5 0 1 -0.29,1.24 c -4.55,2.46 -10.46,1.44 -10.63,-4.44 -0.2,-7.28 10.21,-8.36 12.17,-0.86 q 0.49,1.88 -1.45,1.83 l -5.24,-0.13 q -0.9,-0.02 -0.43,0.76 z m -0.08,-3.99 a 0.65,0.65 0 0 0 0.36,1.21 l 1.59,-0.03 q 1.31,-0.03 0.37,-0.95 -1.05,-1.03 -2.32,-0.23 z"
       id="path68" /><path
       fill="#5f6063"
       d="m 582.2,290.17 0.63,-0.62 q 0.31,-0.31 0.74,-0.31 0.24,0 0.46,0.02 0.62,0.06 0.59,0.68 l -0.17,2.9 q -0.03,0.55 -0.58,0.5 c -3.9,-0.3 -2.83,4.53 -2.88,6.92 q -0.02,0.49 -0.51,0.49 H 577 q -0.75,0 -0.75,-0.75 v -9.76 q 0,-0.5 0.44,-0.71 2.66,-1.27 4.76,0.66 0.38,0.35 0.75,-0.02 z"
       id="path69" /><path
       fill="#5f6063"
       d="m 590.03,292.79 q 1.81,0.85 3.71,1.44 0.5,0.15 0.9,0.51 c 2.5,2.23 0.76,5.39 -2.14,6 q -3.7,0.79 -6.91,-1.03 -0.52,-0.29 -0.27,-0.83 l 0.81,-1.72 q 0.27,-0.6 0.87,-0.33 c 0.76,0.32 3.31,1.55 3.95,1.06 q 0.71,-0.55 -0.15,-0.8 c -2.56,-0.75 -5.89,-1.55 -5,-5.34 q 0.11,-0.5 0.52,-0.83 4.18,-3.28 9.2,-0.52 0.38,0.21 0.2,0.59 l -0.91,2.06 q -0.23,0.52 -0.73,0.26 -1.83,-0.95 -3.89,-1.12 -1.7,-0.14 -0.16,0.6 z"
       id="path70" /><path
       fill="#5f6063"
       d="m 613.9,295.1027 a 6.51,5.93 0.2 0 1 -6.5307,5.9073 6.51,5.93 0.2 0 1 -6.4893,-5.9527 6.51,5.93 0.2 0 1 6.5307,-5.9073 6.51,5.93 0.2 0 1 6.4893,5.9527 z m -6.52,2.2473 a 2.22,1.7 90 0 0 1.7,-2.22 2.22,1.7 90 0 0 -1.7,-2.22 2.22,1.7 90 0 0 -1.7,2.22 2.22,1.7 90 0 0 1.7,2.22 z"
       id="path71" /><path
       fill="#5f6063"
       d="m 656.81,296.93 c 1.79,1.72 3.54,-1.36 5.79,1.49 q 0.36,0.46 -0.09,0.82 c -8.71,7.15 -15.73,-7.35 -6.77,-9.73 4.44,-1.17 7.99,1.36 8.03,6.09 a 0.56,0.56 0 0 1 -0.57,0.57 l -6.02,-0.14 q -1.33,-0.03 -0.37,0.9 z m 0.2,-2.93 h 1.3 q 0.61,0 0.69,-0.6 c 0.14,-1.04 -1.83,-1.26 -2.47,-0.28 q -0.57,0.88 0.48,0.88 z"
       id="path72" /><path
       fill="#5f6063"
       d="m 695.8896,295.1482 a 6.51,5.92 0.6 0 1 -6.5716,5.8515 6.51,5.92 0.6 0 1 -6.4476,-5.9879 6.51,5.92 0.6 0 1 6.5716,-5.8515 6.51,5.92 0.6 0 1 6.4476,5.9879 z M 689.38,297.35 a 2.22,1.7 90 0 0 1.7,-2.22 2.22,1.7 90 0 0 -1.7,-2.22 2.22,1.7 90 0 0 -1.7,2.22 2.22,1.7 90 0 0 1.7,2.22 z"
       id="path73" /><path
       fill="#5f6063"
       d="m 711.77,293.52 c -2.87,-1.53 -2.33,4.59 -2.22,6.66 q 0.03,0.57 -0.54,0.57 h -3.57 q -0.56,0 -0.6,-0.56 c -0.18,-2.25 0.59,-6.25 -1.19,-6.97 a 1.07,1.07 0 0 0 -1.47,0.95 l -0.25,6.12 q -0.02,0.46 -0.48,0.46 H 698 q -0.75,0 -0.75,-0.75 v -9.93 q 0,-0.49 0.47,-0.64 2.51,-0.79 4.6,0.5 0.37,0.24 0.76,0.01 3.37,-2 5.78,1.07 0.33,0.42 0.71,0.04 l 1.08,-1.07 q 0.4,-0.4 0.94,-0.55 c 6.83,-1.85 5.43,7.19 5.4,10.64 q 0,0.68 -0.68,0.68 h -3.44 q -0.62,0 -0.62,-0.63 v -5.8 q 0,-0.55 -0.48,-0.8 z"
       id="path74" /><path
       fill="#5f6063"
       d="m 724.99,289.71 c 7.41,-3.3 9.93,10.27 2.72,11.17 q -1.73,0.22 -3.27,-0.75 -0.77,-0.49 -0.73,0.42 l 0.14,3.5 q 0.02,0.66 -0.64,0.67 l -3.41,0.1 q -0.53,0.02 -0.54,-0.52 l -0.13,-14.25 a 0.71,0.7 -6.5 0 1 0.56,-0.7 q 2.29,-0.45 4.48,0.38 0.41,0.16 0.82,-0.02 z m 0.4949,7.568 a 2.27,1.67 92.4 0 0 1.7636,-2.1981 2.27,1.67 92.4 0 0 -1.5734,-2.3379 2.27,1.67 92.4 0 0 -1.7636,2.1981 2.27,1.67 92.4 0 0 1.5734,2.3379 z"
       id="path75" /><path
       fill="#5f6063"
       d="m 746.35,297.6 a 1.25,1.24 34.9 0 0 0.93,-0.16 q 1.7,-1.04 3.23,0.4 a 1.48,1.47 -30.9 0 1 -0.63,2.5 c -13.09,3.49 -12.43,-12.46 -2.75,-11.02 q 4.79,0.71 5.04,6.2 0.03,0.66 -0.62,0.64 l -6.05,-0.18 q -0.48,-0.01 -0.46,0.47 0.04,0.88 1.31,1.15 z m 0.87,-3.73 a 0.43,0.42 67.7 0 0 0.29,-0.7 q -1.29,-1.51 -2.84,-0.02 a 0.52,0.52 0 0 0 0.4,0.9 z"
       id="path76" /><path
       fill="#5f6063"
       d="m 758.27,298.47 -0.82,1.64 q -0.27,0.54 -0.88,0.58 l -3.98,0.21 q -0.87,0.05 -0.4,-0.68 l 3.11,-4.85 q 0.28,-0.43 0.01,-0.86 l -2.86,-4.47 q -0.27,-0.42 0.2,-0.59 4,-1.44 5.8,1.84 0.38,0.69 0.73,-0.02 1.56,-3.19 5.63,-1.81 0.51,0.18 0.21,0.63 l -2.9,4.44 q -0.25,0.38 0,0.76 l 3.2,4.88 q 0.39,0.58 -0.31,0.58 h -4.23 q -0.52,0 -0.76,-0.47 l -0.92,-1.82 q -0.42,-0.83 -0.83,0.01 z"
       id="path77" /><path
       fill="#5f6063"
       d="m 790.92,294.91 1.32,-5.09 q 0.14,-0.57 0.73,-0.57 h 3.47 q 0.6,0 0.4,0.57 c -1.71,4.99 -4.64,18.94 -12.72,14.35 q -0.44,-0.25 -0.35,-0.74 0.61,-3.07 3.36,-2.16 a 0.77,0.76 87.4 0 0 0.94,-1.03 l -4.4,-10.28 q -0.29,-0.69 0.46,-0.7 l 3.57,-0.02 q 0.55,0 0.72,0.52 l 1.73,5.17 q 0.43,1.27 0.77,-0.02 z"
       id="path78" /><path
       fill="#5f6063"
       d="m 802.24,292.86 c 2,1.51 6.04,1.08 5.38,4.86 -0.77,4.37 -7.37,3.53 -10.13,1.92 q -0.5,-0.29 -0.25,-0.82 l 0.88,-1.83 q 0.29,-0.6 0.86,-0.24 1.73,1.11 3.75,1.27 1.86,0.14 0.22,-0.75 c -1.57,-0.86 -3.98,-1.1 -4.94,-2.44 -1.65,-2.3 0.47,-5.11 3.06,-5.48 q 3.17,-0.45 6.07,0.85 0.55,0.25 0.34,0.81 l -0.7,1.91 q -0.23,0.62 -0.82,0.33 -1.65,-0.81 -3.48,-1.01 -1.23,-0.13 -0.24,0.62 z"
       id="path79" /><path
       fill="#5f6063"
       d="m 823.43,296.74 c 1.21,2.15 3.87,-1.37 5.75,1.7 a 0.97,0.97 0 0 1 -0.42,1.39 c -12.14,5.63 -13.93,-11.59 -3.77,-10.42 q 5.55,0.64 5.53,6.26 a 0.49,0.49 0 0 1 -0.5,0.49 l -6.17,-0.14 q -0.83,-0.01 -0.42,0.72 z m -0.2,-3.12 q 0.93,0.91 2.37,0.07 a 0.38,0.37 -34.2 0 0 0.11,-0.55 q -0.92,-1.25 -2.41,-0.27 a 0.48,0.48 0 0 0 -0.07,0.75 z"
       id="path80" /><path
       fill="#5f6063"
       d="m 836.81,294.45 -0.09,5.7 q -0.01,0.6 -0.62,0.6 h -3.35 Q 832,300.75 832,300 v -10.03 q 0,-0.56 0.56,-0.67 2.38,-0.42 4.56,0.5 0.49,0.21 0.96,-0.04 3.19,-1.68 5.39,1.24 0.38,0.5 0.77,0.01 2.88,-3.51 6.72,-0.36 0.54,0.44 0.57,1.14 l 0.31,8.27 q 0.03,0.69 -0.66,0.69 h -3.68 q -0.49,0 -0.5,-0.5 l -0.01,-5.93 a 1.14,1.13 -10.7 0 0 -1.55,-1.05 c -1.91,0.74 -1.09,4.6 -1.28,6.92 q -0.04,0.56 -0.6,0.56 h -3.51 q -0.51,0 -0.52,-0.51 c -0.03,-1.29 0.85,-8.2 -2.07,-6.8 q -0.63,0.31 -0.65,1.01 z"
       id="path81" /><path
       fill="#5f6063"
       d="m 858.02,292.82 q 1.53,0.91 3.27,1.34 0.5,0.13 0.9,0.46 c 2.53,2.12 1.29,5.29 -1.71,6.02 q -3.8,0.93 -7.21,-0.89 -0.55,-0.3 -0.25,-0.84 l 1.05,-1.93 q 0.25,-0.47 0.71,-0.21 1.74,0.97 3.72,1.25 1.69,0.23 0.26,-0.69 c -2.25,-1.45 -6.51,-1.39 -5.17,-5.51 1.17,-3.58 7.06,-2.77 9.62,-1.55 q 0.55,0.26 0.27,0.8 l -0.95,1.81 q -0.33,0.64 -0.97,0.31 -1.58,-0.82 -3.35,-0.96 -1.39,-0.12 -0.19,0.59 z"
       id="path82" /><path
       fill="#5f6063"
       d="m 895.4059,295.347 a 5.26,5.26 0 0 1 -5.0352,5.4756 l -2.0182,0.0846 a 5.26,5.26 0 0 1 -5.4756,-5.0351 l -0.0428,-1.0191 a 5.26,5.26 0 0 1 5.0352,-5.4756 l 2.0182,-0.0846 a 5.26,5.26 0 0 1 5.4756,5.0351 z m -6.2242,2.0215 a 2.23,1.69 87.9 0 0 1.6072,-2.2904 2.23,1.69 87.9 0 0 -1.7706,-2.1666 2.23,1.69 87.9 0 0 -1.6072,2.2904 2.23,1.69 87.9 0 0 1.7706,2.1666 z"
       id="path83" /><path
       fill="#5f6063"
       d="m 902.62,297.22 1.32,-0.79 q 0.35,-0.21 0.73,-0.05 l 2.67,1.12 a 0.58,0.57 -56.8 0 1 0.19,0.93 c -4.52,4.71 -12.62,2.39 -11.04,-4.89 1.15,-5.34 7.51,-5.31 10.89,-1.85 q 0.38,0.4 -0.03,0.76 -2.3,2.01 -4.88,0.59 -0.47,-0.26 -0.78,0.17 -1.26,1.72 -0.1,3.75 0.38,0.65 1.03,0.26 z"
       id="path84" /><rect
       fill="#5f6063"
       x="908.82001"
       y="289.35001"
       width="4.6799998"
       height="11.4"
       rx="0.41"
       id="rect84" /><path
       fill="#5f6063"
       d="m 920.2,296.76 c 1.6,2.21 4.03,-1.58 5.79,1.72 a 0.92,0.92 0 0 1 -0.37,1.24 c -4.1,2.22 -9.78,1.46 -10.54,-3.79 -1.19,-8.15 12.24,-9.61 12.16,-0.26 a 0.56,0.55 0 0 1 -0.56,0.55 l -6.15,-0.09 q -0.8,-0.01 -0.33,0.63 z m 1.98,-2.89 q 0.96,-0.1 0.29,-0.8 -1.27,-1.33 -2.56,0.13 a 0.51,0.51 0 0 0 0.43,0.84 z"
       id="path85" /><path
       fill="#5f6063"
       d="m 937,290.25 q 1.72,-1.84 4.48,-0.73 0.48,0.19 0.64,0.68 l 1.61,4.9 a 0.33,0.33 0 0 0 0.63,-0.02 l 1.42,-5.3 q 0.15,-0.53 0.7,-0.53 h 3.47 q 0.72,0 0.46,0.67 c -1.96,5.07 -4.52,18.77 -12.81,14.23 q -0.43,-0.24 -0.34,-0.72 0.57,-2.94 3.24,-2.19 a 0.91,0.91 0 0 0 1.07,-1.26 c -0.73,-1.57 -3.59,-9.24 -4.57,-9.73 z"
       id="path86" /></g><path
     style="display:none;fill:none;stroke:#000000;stroke-width:1px;stroke-linecap:butt;stroke-linejoin:miter;stroke-opacity:1"
     d="M 288.48518,183.15943 251.69521,68.059376 242.63679,71.486493 281.53444,187.076 Z"
     id="path26" /><path
     style="display:none;fill:none;stroke:#000000;stroke-width:1px;stroke-linecap:butt;stroke-linejoin:miter;stroke-opacity:1"
     d="M 46.475942,205.78486 9.6859717,90.684806 0.62755169,94.111916 39.525202,209.70143 Z"
     id="path26-2" /><path
     style="display:none;fill:none;stroke:#000000;stroke-width:1px;stroke-linecap:butt;stroke-linejoin:miter;stroke-opacity:1"
     d="m 200.38476,246.60485 -115.100053,36.78997 3.42711,9.05842 115.589513,-38.89765 z"
     id="path26-2-0" /><path
     style="display:none;fill:none;stroke:#000000;stroke-width:1px;stroke-linecap:butt;stroke-linejoin:miter;stroke-opacity:1"
     d="M 210.57369,0.60025362 95.473637,37.390224 98.900747,46.448644 214.49026,7.5509936 Z"
     id="path26-2-0-3" /></svg>
