<?xml version="1.0" encoding="UTF-8" standalone="no"?>
<!-- Created with Inkscape (http://www.inkscape.org/) -->

<svg
   width="54.713932mm"
   height="26.593954mm"
   viewBox="0 0 54.713932 26.593954"
   version="1.1"
   id="svg1"
   xml:space="preserve"
   inkscape:version="1.4 (e7c3feb100, 2024-10-09)"
   sodipodi:docname="core.svg"
   inkscape:export-filename="core.png"
   inkscape:export-xdpi="300"
   inkscape:export-ydpi="300"
   xmlns:inkscape="http://www.inkscape.org/namespaces/inkscape"
   xmlns:sodipodi="http://sodipodi.sourceforge.net/DTD/sodipodi-0.dtd"
   xmlns:xlink="http://www.w3.org/1999/xlink"
   xmlns="http://www.w3.org/2000/svg"
   xmlns:svg="http://www.w3.org/2000/svg"><sodipodi:namedview
     id="namedview1"
     pagecolor="#ffffff"
     bordercolor="#666666"
     borderopacity="1.0"
     inkscape:showpageshadow="2"
     inkscape:pageopacity="0.0"
     inkscape:pagecheckerboard="0"
     inkscape:deskcolor="#d1d1d1"
     inkscape:document-units="mm"
     inkscape:zoom="4.1563118"
     inkscape:cx="110.07355"
     inkscape:cy="40.059555"
     inkscape:window-width="1910"
     inkscape:window-height="1106"
     inkscape:window-x="26"
     inkscape:window-y="23"
     inkscape:window-maximized="0"
     inkscape:current-layer="layer1"
     showgrid="false" /><defs
     id="defs1"><linearGradient
       id="linearGradient3"
       inkscape:collect="always"><stop
         style="stop-color:#691c86;stop-opacity:1;"
         offset="0"
         id="stop3" /><stop
         style="stop-color:#a72063;stop-opacity:1;"
         offset="1"
         id="stop4" /></linearGradient><linearGradient
       inkscape:collect="always"
       xlink:href="#linearGradient3"
       id="linearGradient4"
       x1="52.641632"
       y1="19.361502"
       x2="27.356966"
       y2="19.022392"
       gradientUnits="userSpaceOnUse"
       gradientTransform="translate(55.598266,76.769398)" /></defs><g
     inkscape:label="Layer 1"
     inkscape:groupmode="layer"
     id="layer1"
     transform="translate(-55.598266,-76.769398)"><path
       id="path5"
       style="display:inline;fill:url(#linearGradient4);fill-opacity:1;stroke:none;stroke-width:0.565;stroke-linecap:butt;stroke-linejoin:miter;stroke-dasharray:none;stroke-opacity:1"
       d="m 90.615658,77.969401 -5.88698,1.308447 -3.70675,4.491199 0.872298,6.890019 3.444751,4.665865 4.012158,3.227193 c 0,0 5.697604,4.014426 5.755721,4.055566 l 5.676144,-4.055566 4.01215,-3.227193 3.44475,-4.665865 0.8723,-6.890019 -3.70675,-4.491199 -5.886977,-1.308447 -4.451408,3.723287 z"
       sodipodi:nodetypes="ccccccccccccccc"
       inkscape:label="heart_gradient_fill" /><circle
       style="fill:#b4b4b4;fill-opacity:1;stroke:none;stroke-width:1.065;stroke-miterlimit:4.1;stroke-opacity:1;paint-order:stroke fill markers"
       id="path2-4-3-6-3-2-9-4-4-7-2-6-4-1-1"
       cx="95.067062"
       cy="90.288544"
       r="0.69999999" /><circle
       style="fill:#b4b4b4;fill-opacity:1;stroke:none;stroke-width:1.065;stroke-miterlimit:4.1;stroke-opacity:1;paint-order:stroke fill markers"
       id="path2-4-3-6-3-2-9-4-4-7-2-6-4-1-1-1"
       cx="89.415665"
       cy="82.568748"
       r="0.69999999" /><circle
       style="fill:#b4b4b4;fill-opacity:1;stroke:none;stroke-width:1.065;stroke-miterlimit:4.1;stroke-opacity:1;paint-order:stroke fill markers"
       id="path2-4-3-6-3-2-9-4-4-7-2-6-4-1-1-1-1"
       cx="105"
       cy="87.301392"
       r="0.69999999" /><circle
       style="fill:#b4b4b4;fill-opacity:1;stroke:none;stroke-width:1.065;stroke-miterlimit:4.1;stroke-opacity:1;paint-order:stroke fill markers"
       id="path2-4-3-6-3-2-9-4-4-7-2-6-4-1-1-1-8"
       cx="93.867065"
       cy="97.821777"
       r="0.69999999" /><path
       style="fill:none;stroke:#b4b4b4;stroke-width:0.264583px;stroke-linecap:butt;stroke-linejoin:miter;stroke-opacity:1"
       d="m 93.867064,97.821775 -4.515929,0.730348"
       id="path7" /><path
       style="fill:none;stroke:#b4b4b4;stroke-width:0.264583px;stroke-linecap:butt;stroke-linejoin:miter;stroke-opacity:1"
       d="M 95.067062,102.16335 93.867064,97.821775"
       id="path8"
       sodipodi:nodetypes="cc" /><path
       style="fill:none;stroke:#b4b4b4;stroke-width:0.264583px;stroke-linecap:butt;stroke-linejoin:miter;stroke-opacity:1"
       d="m 93.867064,97.821775 1.199999,-7.53323"
       id="path9" /><path
       style="fill:none;stroke:#b4b4b4;stroke-width:0.264583px;stroke-linecap:butt;stroke-linejoin:miter;stroke-opacity:1"
       d="M 95.067064,90.288545 100.783,98.552124"
       id="path9-7"
       sodipodi:nodetypes="cc" /><path
       style="fill:none;stroke:#b4b4b4;stroke-width:0.264583px;stroke-linecap:butt;stroke-linejoin:miter;stroke-opacity:1"
       d="M 105,87.301392 99.518473,77.969401"
       id="path1" /><path
       style="fill:none;stroke:#b4b4b4;stroke-width:0.264583px;stroke-linecap:butt;stroke-linejoin:miter;stroke-opacity:1"
       d="M 95.067063,90.288545 105,87.301392"
       id="path10" /><path
       style="fill:none;stroke:#b4b4b4;stroke-width:0.264583px;stroke-linecap:butt;stroke-linejoin:miter;stroke-opacity:1"
       d="m 89.415664,82.568747 5.6514,7.719798"
       id="path4" /><path
       style="fill:none;stroke:#b4b4b4;stroke-width:0.264583px;stroke-linecap:butt;stroke-linejoin:miter;stroke-opacity:1"
       d="m 89.415664,82.568747 5.651399,-0.876059"
       id="path11" /><path
       style="fill:none;stroke:#b4b4b4;stroke-width:0.264583px;stroke-linecap:butt;stroke-linejoin:miter;stroke-opacity:1"
       d="M 89.415664,82.568747 84.728678,79.277848"
       id="path14" /><path
       style="fill:none;stroke:#b4b4b4;stroke-width:0.264583px;stroke-linecap:butt;stroke-linejoin:miter;stroke-opacity:1"
       d="M 85.338977,95.324929 89.415664,82.568747"
       id="path12" /><path
       style="fill:none;stroke:#b4b4b4;stroke-width:0.264583px;stroke-linecap:butt;stroke-linejoin:miter;stroke-opacity:1"
       d="m 105,87.301392 4.1122,-3.532341"
       id="path15" /><path
       style="fill:none;stroke:#b4b4b4;stroke-width:0.264583px;stroke-linecap:butt;stroke-linejoin:miter;stroke-opacity:1"
       d="M 104.79515,95.324929 105,87.301392"
       id="path13" /><path
       style="fill:none;stroke:#b4b4b4;stroke-width:0.264583px;stroke-linecap:butt;stroke-linejoin:miter;stroke-opacity:1"
       d="m 104.67843,96.522392 0.20485,-8.023537"
       id="path13-5" /><path
       style="font-weight:900;font-size:18.3444px;line-height:1.1;font-family:'Coco Gothic';-inkscape-font-specification:'Coco Gothic Heavy';text-align:center;text-anchor:middle;display:inline;fill:#bd2063;stroke-width:1.065;stroke-miterlimit:4.1;paint-order:stroke fill markers"
       d="m 64.550334,92.530553 q 0.201788,-0.146755 0.366888,-0.1651 0.165099,-0.01834 0.29351,0.1651 l 1.504241,2.201328 q 0.146755,0.201788 0.110066,0.330199 -0.03669,0.110066 -0.238477,0.256822 -0.733776,0.531987 -1.724373,0.898875 -0.972254,0.348544 -2.219673,0.348544 -1.449207,0 -2.733315,-0.550332 -1.284109,-0.550332 -2.256362,-1.504241 -0.953909,-0.972253 -1.504241,-2.256361 -0.550332,-1.284108 -0.550332,-2.733316 0,-1.467552 0.550332,-2.733316 0.550332,-1.265763 1.504241,-2.219672 0.972253,-0.953909 2.256362,-1.485896 1.284108,-0.550332 2.733315,-0.550332 1.247419,0 2.219673,0.385232 0.990597,0.366888 1.761062,0.898876 0.146755,0.09172 0.1651,0.238477 0.01834,0.146755 -0.03669,0.238477 l -1.595963,2.29305 q -0.110066,0.146755 -0.275166,0.146755 -0.146755,-0.01834 -0.29351,-0.146755 -0.45861,-0.366888 -0.91722,-0.513643 -0.45861,-0.1651 -1.027287,-0.1651 -0.770465,0 -1.430863,0.275166 -0.642054,0.275166 -1.119008,0.770465 -0.476955,0.476954 -0.752121,1.137353 -0.256822,0.660398 -0.256822,1.430863 0,0.770465 0.256822,1.449208 0.275166,0.660398 0.752121,1.155697 0.476954,0.495299 1.119008,0.788809 0.660398,0.275166 1.430863,0.275166 0.587021,0 1.063975,-0.201788 0.476955,-0.201789 0.843844,-0.45861 z m 6.677353,-2.971793 q 0,0.770465 0.256822,1.430863 0.256821,0.660399 0.715432,1.155697 0.45861,0.476955 1.100664,0.770465 0.642054,0.275166 1.394174,0.275166 0.75212,0 1.394174,-0.275166 0.642054,-0.29351 1.100664,-0.770465 0.45861,-0.495298 0.715432,-1.155697 0.256822,-0.660398 0.256822,-1.430863 0,-0.75212 -0.256822,-1.412519 -0.256822,-0.660398 -0.715432,-1.155697 -0.45861,-0.495299 -1.100664,-0.770465 -0.642054,-0.29351 -1.394174,-0.29351 -0.75212,0 -1.394174,0.29351 -0.642054,0.275166 -1.100664,0.770465 -0.458611,0.495299 -0.715432,1.155697 -0.256822,0.660399 -0.256822,1.412519 z m -3.540469,0.01834 q 0,-1.467552 0.550332,-2.733315 0.550332,-1.284108 1.485896,-2.238017 0.953909,-0.953909 2.238017,-1.504241 1.284108,-0.550332 2.733316,-0.550332 1.449208,0 2.714971,0.550332 1.284108,0.550332 2.238017,1.504241 0.953909,0.953909 1.504241,2.238017 0.550332,1.265763 0.550332,2.733315 0,1.449208 -0.550332,2.733316 -0.550332,1.265764 -1.504241,2.219672 -0.953909,0.935565 -2.238017,1.485897 -1.265763,0.550332 -2.714971,0.550332 -1.449208,0 -2.733316,-0.550332 Q 70.677355,95.465653 69.723446,94.530088 68.787882,93.57618 68.23755,92.310416 67.687218,91.026308 67.687218,89.5771 Z"
       id="path16"
       inkscape:label="CO" /><path
       id="path19"
       style="fill:#ffffff;fill-opacity:1;stroke:none;stroke-width:0.565;stroke-linecap:butt;stroke-linejoin:miter;stroke-dasharray:none;stroke-opacity:1"
       inkscape:label="RE_cropped"
       d="M 84.343799 82.753012 C 84.209272 82.753012 84.111423 82.795562 84.050276 82.88117 C 83.98913 82.966777 83.958809 83.058768 83.958809 83.156605 L 83.958809 93.455201 L 84.628019 94.362123 A 1.2 1.2 0 0 0 84.13916 95.324855 A 1.2 1.2 0 0 0 84.776847 96.364584 L 85.909078 96.364584 A 1.2 1.2 0 0 0 86.272363 96.075713 L 86.631514 96.364584 L 87.095569 96.364584 C 87.36462 96.364584 87.499162 96.230042 87.499162 95.960991 L 87.499162 91.833595 L 88.966772 91.833595 L 91.149585 95.979078 C 91.222964 96.138062 91.290493 96.242284 91.35164 96.291204 C 91.412788 96.340124 91.510636 96.364584 91.645162 96.364584 L 94.946769 96.364584 C 95.081297 96.364584 95.166914 96.321517 95.203601 96.23591 C 95.240288 96.150303 95.228057 96.058828 95.166911 95.960991 L 92.543815 91.081186 C 93.216443 90.65315 93.75461 90.102752 94.158187 89.430124 C 94.573993 88.757496 94.781921 88.054468 94.781921 87.320692 C 94.781921 86.745901 94.677699 86.189645 94.469796 85.651543 C 94.261892 85.101211 93.96249 84.611969 93.571142 84.183933 C 93.192025 83.755897 92.733618 83.413427 92.195516 83.156605 C 91.669643 82.887554 91.082552 82.753012 90.434383 82.753012 L 84.343799 82.753012 z M 97.240169 82.753012 C 96.971118 82.753012 96.836576 82.887554 96.836576 83.156605 L 96.836576 95.960991 C 96.836576 96.230042 96.971118 96.364584 97.240169 96.364584 L 103.50284 96.364584 L 103.86199 96.075713 A 1.2 1.2 0 0 0 104.22527 96.364584 L 105.3575 96.364584 A 1.2 1.2 0 0 0 105.99519 95.324855 A 1.2 1.2 0 0 0 105.50788 94.359539 L 106.34349 93.227825 L 100.37693 93.227825 L 100.37693 90.879648 L 104.92652 90.879648 C 105.22003 90.879648 105.3668 90.745106 105.3668 90.476055 L 105.3668 88.586765 C 105.3668 88.305483 105.22003 88.164568 104.92652 88.164568 L 100.37693 88.164568 L 100.37693 85.908375 L 106.35744 85.908375 C 106.62649 85.908375 106.76052 85.773833 106.76052 85.504782 L 106.76052 83.156605 C 106.76052 82.887554 106.62649 82.753012 106.35744 82.753012 L 97.240169 82.753012 z M 87.499162 85.578163 L 89.535213 85.578163 C 89.779805 85.578163 89.999964 85.627087 90.195638 85.724924 C 90.391311 85.82276 90.562546 85.950928 90.709302 86.109913 C 90.856057 86.268898 90.966137 86.452364 91.039514 86.660267 C 91.125121 86.85594 91.168188 87.051638 91.168188 87.247311 C 91.168188 87.455215 91.125121 87.663143 91.039514 87.871046 C 90.966137 88.066719 90.856057 88.244328 90.709302 88.403313 C 90.562546 88.550068 90.391311 88.671862 90.195638 88.769699 C 89.999964 88.855306 89.779805 88.898373 89.535213 88.898373 L 87.499162 88.898373 L 87.499162 85.578163 z "
       transform="translate(-3.7499998e-7)" /><g
       id="g19"
       inkscape:label="outer_heart"><path
         id="path3"
         style="fill:none;fill-opacity:1;stroke:#515353;stroke-width:0.565;stroke-linecap:butt;stroke-linejoin:miter;stroke-dasharray:none;stroke-opacity:1"
         d="m 90.615658,77.969401 -5.88698,1.308447 -3.70675,4.491199 0.872298,6.890019 3.444751,4.665865 4.012158,3.227193 c 0,0 5.697604,4.014426 5.755721,4.055566 l 5.676144,-4.055566 4.01215,-3.227193 3.44475,-4.665865 0.8723,-6.890019 -3.70675,-4.491199 -5.886977,-1.308447 -4.451408,3.723287 z"
         sodipodi:nodetypes="ccccccccccccccc"
         inkscape:label="edges" /><circle
         style="fill:#515353;fill-opacity:1;stroke:none;stroke-width:1.065;stroke-miterlimit:4.1;stroke-opacity:1;paint-order:stroke fill markers"
         id="path2"
         cx="95.067062"
         cy="102.16335"
         r="1.2"
         transform="translate(-3.7499998e-7)" /><circle
         style="fill:#515353;fill-opacity:1;stroke:none;stroke-width:1.065;stroke-miterlimit:4.1;stroke-opacity:1;paint-order:stroke fill markers"
         id="path2-4"
         cx="89.351135"
         cy="98.552124"
         r="1.2"
         transform="translate(-3.7499998e-7)" /><circle
         style="fill:#515353;fill-opacity:1;stroke:none;stroke-width:1.065;stroke-miterlimit:4.1;stroke-opacity:1;paint-order:stroke fill markers"
         id="path2-4-3"
         cx="85.338974"
         cy="95.324928"
         r="1.2"
         transform="translate(-3.7499998e-7)" /><circle
         style="fill:#515353;fill-opacity:1;stroke:none;stroke-width:1.065;stroke-miterlimit:4.1;stroke-opacity:1;paint-order:stroke fill markers"
         id="path2-4-3-6"
         cx="81.894226"
         cy="90.659065"
         r="1.2"
         transform="translate(-3.7499998e-7)" /><circle
         style="fill:#515353;fill-opacity:1;stroke:none;stroke-width:1.065;stroke-miterlimit:4.1;stroke-opacity:1;paint-order:stroke fill markers"
         id="path2-4-3-6-3"
         cx="81.021927"
         cy="83.769051"
         r="1.2"
         transform="translate(-3.7499998e-7)" /><circle
         style="fill:#515353;fill-opacity:1;stroke:none;stroke-width:1.065;stroke-miterlimit:4.1;stroke-opacity:1;paint-order:stroke fill markers"
         id="path2-4-3-6-3-2"
         cx="84.728676"
         cy="79.277847"
         r="1.2"
         transform="translate(-3.7499998e-7)" /><circle
         style="fill:#515353;fill-opacity:1;stroke:none;stroke-width:1.065;stroke-miterlimit:4.1;stroke-opacity:1;paint-order:stroke fill markers"
         id="path2-4-3-6-3-2-9"
         cx="90.615662"
         cy="77.969398"
         r="1.2"
         transform="translate(-3.7499998e-7)" /><circle
         style="fill:#515353;fill-opacity:1;stroke:none;stroke-width:1.065;stroke-miterlimit:4.1;stroke-opacity:1;paint-order:stroke fill markers"
         id="path2-4-3-6-3-2-9-4"
         cx="95.067062"
         cy="81.368752"
         r="1.2"
         transform="translate(-3.7499998e-7)" /><circle
         style="fill:#515353;fill-opacity:1;stroke:none;stroke-width:1.065;stroke-miterlimit:4.1;stroke-opacity:1;paint-order:stroke fill markers"
         id="path2-4-3-6-3-2-9-4-4"
         cx="99.518471"
         cy="77.969398"
         r="1.2"
         transform="translate(-3.7499998e-7)" /><circle
         style="fill:#515353;fill-opacity:1;stroke:none;stroke-width:1.065;stroke-miterlimit:4.1;stroke-opacity:1;paint-order:stroke fill markers"
         id="path2-4-3-6-3-2-9-4-4-7"
         cx="105.40545"
         cy="79.277847"
         r="1.2"
         transform="translate(-3.7499998e-7)" /><circle
         style="fill:#515353;fill-opacity:1;stroke:none;stroke-width:1.065;stroke-miterlimit:4.1;stroke-opacity:1;paint-order:stroke fill markers"
         id="path2-4-3-6-3-2-9-4-4-7-2"
         cx="109.1122"
         cy="83.769051"
         r="1.2"
         transform="translate(-3.7499998e-7)" /><circle
         style="fill:#515353;fill-opacity:1;stroke:none;stroke-width:1.065;stroke-miterlimit:4.1;stroke-opacity:1;paint-order:stroke fill markers"
         id="path2-4-3-6-3-2-9-4-4-7-2-6"
         cx="108.2399"
         cy="90.659065"
         r="1.2"
         transform="translate(-3.7499998e-7)" /><circle
         style="fill:#515353;fill-opacity:1;stroke:none;stroke-width:1.065;stroke-miterlimit:4.1;stroke-opacity:1;paint-order:stroke fill markers"
         id="path2-4-3-6-3-2-9-4-4-7-2-6-4"
         cx="104.79515"
         cy="95.324928"
         r="1.2"
         transform="translate(-3.7499998e-7)" /><circle
         style="fill:#515353;fill-opacity:1;stroke:none;stroke-width:1.065;stroke-miterlimit:4.1;stroke-opacity:1;paint-order:stroke fill markers"
         id="path2-4-3-6-3-2-9-4-4-7-2-6-4-1"
         cx="100.783"
         cy="98.552124"
         r="1.2"
         transform="translate(-3.7499998e-7)" /><g
         id="g5"
         style="fill:#515353;fill-opacity:1"
         inkscape:label="nodes" /></g><g
       id="g33"
       inkscape:label="outer_heart"
       transform="translate(-3.7499998e-7)" /></g></svg>
